<svg width="923" height="498" viewBox="0 0 923 498" fill="none" xmlns="http://www.w3.org/2000/svg">
<rect width="923" height="498" rx="8" fill="white"/>
<path d="M923 0H0V498H923V0Z" fill="#1C2833"/>
<path d="M923 15C923 6.71573 916.284 0 908 0H15C6.7157 0 0 6.71573 0 15V483C0 491.284 6.71573 498 15 498H908C916.284 498 923 491.284 923 483V15Z" fill="#1C2833"/>
<path d="M923 15C923 6.71573 916.284 0 908 0H15C6.7157 0 0 6.71573 0 15V483C0 491.284 6.71573 498 15 498H908C916.284 498 923 491.284 923 483V15Z" fill="#1C2833"/>
<path d="M447.568 493L0 0H923L447.568 493Z" fill="url(#paint0_linear_102_3)"/>
<mask id="mask0_102_3" style="mask-type:alpha" maskUnits="userSpaceOnUse" x="313" y="102" width="295" height="294">
<path d="M522.082 394.386C526.726 396.197 532.022 396.081 536.709 393.823L597.413 364.582C603.792 361.51 607.848 355.046 607.848 347.956V149.685C607.848 142.595 603.792 136.132 597.413 133.06L536.709 103.818C530.558 100.855 523.358 101.581 517.96 105.51C517.188 106.071 516.453 106.698 515.765 107.388L399.553 213.523L348.934 175.058C344.222 171.477 337.631 171.771 333.254 175.756L317.019 190.54C311.666 195.415 311.66 203.845 317.006 208.728L360.904 248.82L317.006 288.912C311.66 293.795 311.666 302.226 317.019 307.101L333.254 321.884C337.631 325.87 344.222 326.163 348.934 322.583L399.553 284.117L515.765 390.252C517.603 392.094 519.761 393.481 522.082 394.386ZM534.181 181.815L446.003 248.82L534.181 315.825V181.815Z" fill="white"/>
</mask>
<g mask="url(#mask0_102_3)">
<path d="M597.593 133.105L536.842 103.823C529.81 100.434 521.406 101.863 515.887 107.388L317.008 288.912C311.659 293.795 311.665 302.226 317.021 307.1L333.266 321.884C337.646 325.87 344.241 326.163 348.956 322.583L588.452 140.702C596.487 134.6 608.027 140.336 608.027 150.432V149.726C608.027 142.64 603.972 136.179 597.593 133.105Z" fill="#0065A9"/>
<path d="M597.593 364.535L536.842 393.817C529.81 397.206 521.406 395.776 515.887 390.252L317.008 208.728C311.659 203.845 311.665 195.414 317.021 190.54L333.266 175.756C337.646 171.77 344.241 171.477 348.956 175.058L588.452 356.938C596.487 363.04 608.027 357.304 608.027 347.207V347.914C608.027 355 603.972 361.46 597.593 364.535Z" fill="#007ACC"/>
<path d="M536.652 393.841C529.618 397.227 521.213 395.796 515.694 390.271C522.494 397.078 534.122 392.257 534.122 382.629V115.048C534.122 105.421 522.494 100.599 515.694 107.407C521.213 101.882 529.618 100.45 536.652 103.837L597.393 133.078C603.776 136.151 607.834 142.614 607.834 149.703V347.975C607.834 355.065 603.776 361.527 597.393 364.6L536.652 393.841Z" fill="#1F9CF0"/>
<path d="M522.082 394.386C526.726 396.196 532.022 396.081 536.708 393.823L597.413 364.581C603.792 361.509 607.849 355.046 607.849 347.956V149.685C607.849 142.595 603.792 136.132 597.414 133.06L536.708 103.818C530.558 100.855 523.358 101.581 517.959 105.51C517.188 106.071 516.454 106.698 515.764 107.388L399.553 213.523L348.934 175.058C344.222 171.477 337.63 171.771 333.254 175.756L317.019 190.54C311.666 195.415 311.66 203.845 317.006 208.728L360.904 248.82L317.006 288.913C311.66 293.795 311.666 302.226 317.019 307.101L333.254 321.884C337.63 325.87 344.222 326.163 348.934 322.583L399.553 284.117L515.764 390.252C517.602 392.094 519.761 393.481 522.082 394.386ZM534.181 181.815L446.003 248.82L534.181 315.825V181.815Z" fill="url(#paint1_linear_102_3)" fill-opacity="0.25"/>
</g>
<defs>
<linearGradient id="paint0_linear_102_3" x1="461.5" y1="493" x2="-29.8289" y2="117.341" gradientUnits="userSpaceOnUse">
<stop stop-color="#212F3C"/>
<stop offset="0.338542" stop-color="#212F3C" stop-opacity="0"/>
</linearGradient>
<linearGradient id="paint1_linear_102_3" x1="460" y1="89" x2="460.424" y2="395.64" gradientUnits="userSpaceOnUse">
<stop stop-color="#202E3A"/>
<stop offset="1" stop-color="white" stop-opacity="0"/>
</linearGradient>
</defs>
</svg>
