<svg width="923" height="498" viewBox="0 0 923 498" fill="none" xmlns="http://www.w3.org/2000/svg">
<rect width="923" height="498" fill="white"/>
<rect x="100" y="367" width="722" height="17" rx="5" fill="#2FE4B9"/>
<rect x="233" y="323" width="6" height="35" rx="1" fill="#2FE4B9"/>
<rect x="556" y="323" width="6" height="35" rx="1" fill="#2FE4B9"/>
<path d="M690 249V294.5C690 295.428 689.631 296.318 688.975 296.975C688.318 297.631 687.428 298 686.5 298H679.5V305H686.5C687.428 305 688.318 305.369 688.975 306.025C689.631 306.682 690 307.572 690 308.5C690 309.428 689.631 310.318 688.975 310.975C688.318 311.631 687.428 312 686.5 312H665.5C664.572 312 663.682 311.631 663.025 310.975C662.369 310.318 662 309.428 662 308.5C662 307.572 662.369 306.682 663.025 306.025C663.682 305.369 664.572 305 665.5 305H672.5V298H651.5C648.716 297.997 646.047 296.89 644.079 294.921C642.11 292.953 641.003 290.284 641 287.5V256C641.003 253.216 642.11 250.547 644.079 248.579C646.047 246.61 648.716 245.503 651.5 245.5H686.5C687.428 245.5 688.318 245.869 688.975 246.525C689.631 247.182 690 248.072 690 249ZM746 235V305C745.998 306.856 745.26 308.635 743.947 309.947C742.635 311.26 740.856 311.998 739 312H704C702.144 311.998 700.365 311.26 699.053 309.947C697.74 308.635 697.002 306.856 697 305V235C697.002 233.144 697.74 231.365 699.053 230.053C700.365 228.74 702.144 228.002 704 228H739C740.856 228.002 742.635 228.74 743.947 230.053C745.26 231.365 745.998 233.144 746 235ZM726.75 292.75C726.75 291.712 726.442 290.697 725.865 289.833C725.288 288.97 724.468 288.297 723.509 287.9C722.55 287.502 721.494 287.398 720.476 287.601C719.457 287.803 718.522 288.303 717.788 289.038C717.053 289.772 716.553 290.707 716.351 291.726C716.148 292.744 716.252 293.8 716.65 294.759C717.047 295.718 717.72 296.538 718.583 297.115C719.447 297.692 720.462 298 721.5 298C722.892 297.998 724.226 297.445 725.211 296.461C726.195 295.476 726.748 294.142 726.75 292.75ZM735.5 259.5C735.5 258.572 735.131 257.682 734.475 257.025C733.818 256.369 732.928 256 732 256H711C710.072 256 709.182 256.369 708.525 257.025C707.869 257.682 707.5 258.572 707.5 259.5C707.5 260.428 707.869 261.318 708.525 261.975C709.182 262.631 710.072 263 711 263H732C732.928 263 733.818 262.631 734.475 261.975C735.131 261.318 735.5 260.428 735.5 259.5ZM735.5 245.5C735.5 244.572 735.131 243.682 734.475 243.025C733.818 242.369 732.928 242 732 242H711C710.072 242 709.182 242.369 708.525 243.025C707.869 243.682 707.5 244.572 707.5 245.5C707.5 246.428 707.869 247.318 708.525 247.975C709.182 248.631 710.072 249 711 249H732C732.928 249 733.818 248.631 734.475 247.975C735.131 247.318 735.5 246.428 735.5 245.5Z" fill="#002855"/>
<path d="M527 249V294.5C527 295.428 526.631 296.318 525.975 296.975C525.318 297.631 524.428 298 523.5 298H516.5V305H523.5C524.428 305 525.318 305.369 525.975 306.025C526.631 306.682 527 307.572 527 308.5C527 309.428 526.631 310.318 525.975 310.975C525.318 311.631 524.428 312 523.5 312H502.5C501.572 312 500.682 311.631 500.025 310.975C499.369 310.318 499 309.428 499 308.5C499 307.572 499.369 306.682 500.025 306.025C500.682 305.369 501.572 305 502.5 305H509.5V298H488.5C485.716 297.997 483.047 296.89 481.079 294.921C479.11 292.953 478.003 290.284 478 287.5V256C478.003 253.216 479.11 250.547 481.079 248.579C483.047 246.61 485.716 245.503 488.5 245.5H523.5C524.428 245.5 525.318 245.869 525.975 246.525C526.631 247.182 527 248.072 527 249ZM583 235V305C582.998 306.856 582.26 308.635 580.947 309.947C579.635 311.26 577.856 311.998 576 312H541C539.144 311.998 537.365 311.26 536.053 309.947C534.74 308.635 534.002 306.856 534 305V235C534.002 233.144 534.74 231.365 536.053 230.053C537.365 228.74 539.144 228.002 541 228H576C577.856 228.002 579.635 228.74 580.947 230.053C582.26 231.365 582.998 233.144 583 235ZM563.75 292.75C563.75 291.712 563.442 290.697 562.865 289.833C562.288 288.97 561.468 288.297 560.509 287.9C559.55 287.502 558.494 287.398 557.476 287.601C556.457 287.803 555.522 288.303 554.788 289.038C554.053 289.772 553.553 290.707 553.351 291.726C553.148 292.744 553.252 293.8 553.65 294.759C554.047 295.718 554.72 296.538 555.583 297.115C556.447 297.692 557.462 298 558.5 298C559.892 297.998 561.226 297.445 562.211 296.461C563.195 295.476 563.748 294.142 563.75 292.75ZM572.5 259.5C572.5 258.572 572.131 257.682 571.475 257.025C570.818 256.369 569.928 256 569 256H548C547.072 256 546.182 256.369 545.525 257.025C544.869 257.682 544.5 258.572 544.5 259.5C544.5 260.428 544.869 261.318 545.525 261.975C546.182 262.631 547.072 263 548 263H569C569.928 263 570.818 262.631 571.475 261.975C572.131 261.318 572.5 260.428 572.5 259.5ZM572.5 245.5C572.5 244.572 572.131 243.682 571.475 243.025C570.818 242.369 569.928 242 569 242H548C547.072 242 546.182 242.369 545.525 243.025C544.869 243.682 544.5 244.572 544.5 245.5C544.5 246.428 544.869 247.318 545.525 247.975C546.182 248.631 547.072 249 548 249H569C569.928 249 570.818 248.631 571.475 247.975C572.131 247.318 572.5 246.428 572.5 245.5Z" fill="#002855"/>
<rect x="719" y="323" width="6" height="35" rx="1" fill="#2FE4B9"/>
<path d="M207 249V294.5C207 295.428 206.631 296.318 205.975 296.975C205.318 297.631 204.428 298 203.5 298H196.5V305H203.5C204.428 305 205.318 305.369 205.975 306.025C206.631 306.682 207 307.572 207 308.5C207 309.428 206.631 310.318 205.975 310.975C205.318 311.631 204.428 312 203.5 312H182.5C181.572 312 180.682 311.631 180.025 310.975C179.369 310.318 179 309.428 179 308.5C179 307.572 179.369 306.682 180.025 306.025C180.682 305.369 181.572 305 182.5 305H189.5V298H168.5C165.716 297.997 163.047 296.89 161.079 294.921C159.11 292.953 158.003 290.284 158 287.5V256C158.003 253.216 159.11 250.547 161.079 248.579C163.047 246.61 165.716 245.503 168.5 245.5H203.5C204.428 245.5 205.318 245.869 205.975 246.525C206.631 247.182 207 248.072 207 249ZM263 235V305C262.998 306.856 262.26 308.635 260.947 309.947C259.635 311.26 257.856 311.998 256 312H221C219.144 311.998 217.365 311.26 216.053 309.947C214.74 308.635 214.002 306.856 214 305V235C214.002 233.144 214.74 231.365 216.053 230.053C217.365 228.74 219.144 228.002 221 228H256C257.856 228.002 259.635 228.74 260.947 230.053C262.26 231.365 262.998 233.144 263 235ZM243.75 292.75C243.75 291.712 243.442 290.697 242.865 289.833C242.288 288.97 241.468 288.297 240.509 287.9C239.55 287.502 238.494 287.398 237.476 287.601C236.457 287.803 235.522 288.303 234.788 289.038C234.053 289.772 233.553 290.707 233.351 291.726C233.148 292.744 233.252 293.8 233.65 294.759C234.047 295.718 234.72 296.538 235.583 297.115C236.447 297.692 237.462 298 238.5 298C239.892 297.998 241.226 297.445 242.211 296.461C243.195 295.476 243.748 294.142 243.75 292.75ZM252.5 259.5C252.5 258.572 252.131 257.682 251.475 257.025C250.818 256.369 249.928 256 249 256H228C227.072 256 226.182 256.369 225.525 257.025C224.869 257.682 224.5 258.572 224.5 259.5C224.5 260.428 224.869 261.318 225.525 261.975C226.182 262.631 227.072 263 228 263H249C249.928 263 250.818 262.631 251.475 261.975C252.131 261.318 252.5 260.428 252.5 259.5ZM252.5 245.5C252.5 244.572 252.131 243.682 251.475 243.025C250.818 242.369 249.928 242 249 242H228C227.072 242 226.182 242.369 225.525 243.025C224.869 243.682 224.5 244.572 224.5 245.5C224.5 246.428 224.869 247.318 225.525 247.975C226.182 248.631 227.072 249 228 249H249C249.928 249 250.818 248.631 251.475 247.975C252.131 247.318 252.5 246.428 252.5 245.5Z" fill="#002855"/>
<rect x="375" y="323" width="6" height="35" rx="1" fill="#2FE4B9"/>
<path d="M245.188 70.764C248.932 70.764 251.8 71.436 253.792 72.78C255.784 74.1 256.78 76.164 256.78 78.972C256.78 80.724 256.372 82.152 255.556 83.256C254.764 84.336 253.612 85.188 252.1 85.812C252.604 86.436 253.132 87.156 253.684 87.972C254.236 88.764 254.776 89.604 255.304 90.492C255.856 91.356 256.384 92.268 256.888 93.228C257.392 94.164 257.86 95.088 258.292 96H251.992C251.536 95.184 251.068 94.356 250.588 93.516C250.132 92.676 249.652 91.86 249.148 91.068C248.668 90.276 248.188 89.532 247.708 88.836C247.228 88.116 246.748 87.468 246.268 86.892H243.496V96H237.88V71.412C239.104 71.172 240.364 71.004 241.66 70.908C242.98 70.812 244.156 70.764 245.188 70.764ZM245.512 75.552C245.104 75.552 244.732 75.564 244.396 75.588C244.084 75.612 243.784 75.636 243.496 75.66V82.428H245.08C247.192 82.428 248.704 82.164 249.616 81.636C250.528 81.108 250.984 80.208 250.984 78.936C250.984 77.712 250.516 76.848 249.58 76.344C248.668 75.816 247.312 75.552 245.512 75.552ZM261.892 96V71.052H278.74V75.768H267.508V80.664H277.48V85.272H267.508V91.284H279.568V96H261.892ZM289.34 91.428C289.604 91.452 289.904 91.476 290.24 91.5C290.6 91.5 291.02 91.5 291.5 91.5C294.308 91.5 296.384 90.792 297.728 89.376C299.096 87.96 299.78 86.004 299.78 83.508C299.78 80.892 299.132 78.912 297.836 77.568C296.54 76.224 294.488 75.552 291.68 75.552C291.296 75.552 290.9 75.564 290.492 75.588C290.084 75.588 289.7 75.612 289.34 75.66V91.428ZM305.576 83.508C305.576 85.668 305.24 87.552 304.568 89.16C303.896 90.768 302.936 92.1 301.688 93.156C300.464 94.212 298.964 95.004 297.188 95.532C295.412 96.06 293.42 96.324 291.212 96.324C290.204 96.324 289.028 96.276 287.684 96.18C286.34 96.108 285.02 95.94 283.724 95.676V71.376C285.02 71.136 286.364 70.98 287.756 70.908C289.172 70.812 290.384 70.764 291.392 70.764C293.528 70.764 295.46 71.004 297.188 71.484C298.94 71.964 300.44 72.72 301.688 73.752C302.936 74.784 303.896 76.104 304.568 77.712C305.24 79.32 305.576 81.252 305.576 83.508ZM324.531 91.428C324.795 91.452 325.095 91.476 325.431 91.5C325.791 91.5 326.211 91.5 326.691 91.5C329.499 91.5 331.575 90.792 332.919 89.376C334.287 87.96 334.971 86.004 334.971 83.508C334.971 80.892 334.323 78.912 333.027 77.568C331.731 76.224 329.679 75.552 326.871 75.552C326.487 75.552 326.091 75.564 325.683 75.588C325.275 75.588 324.891 75.612 324.531 75.66V91.428ZM340.767 83.508C340.767 85.668 340.431 87.552 339.759 89.16C339.087 90.768 338.127 92.1 336.879 93.156C335.655 94.212 334.155 95.004 332.379 95.532C330.603 96.06 328.611 96.324 326.403 96.324C325.395 96.324 324.219 96.276 322.875 96.18C321.531 96.108 320.211 95.94 318.915 95.676V71.376C320.211 71.136 321.555 70.98 322.947 70.908C324.363 70.812 325.575 70.764 326.583 70.764C328.719 70.764 330.651 71.004 332.379 71.484C334.131 71.964 335.631 72.72 336.879 73.752C338.127 74.784 339.087 76.104 339.759 77.712C340.431 79.32 340.767 81.252 340.767 83.508ZM345.458 96V71.052H362.306V75.768H351.074V80.664H361.046V85.272H351.074V91.284H363.134V96H345.458ZM394.443 71.052V75.84H386.919V96H381.303V75.84H373.779V71.052H394.443ZM401.924 83.508C401.924 84.732 402.068 85.836 402.356 86.82C402.668 87.804 403.1 88.656 403.652 89.376C404.228 90.072 404.924 90.612 405.74 90.996C406.556 91.38 407.492 91.572 408.548 91.572C409.58 91.572 410.504 91.38 411.32 90.996C412.16 90.612 412.856 90.072 413.408 89.376C413.984 88.656 414.416 87.804 414.704 86.82C415.016 85.836 415.172 84.732 415.172 83.508C415.172 82.284 415.016 81.18 414.704 80.196C414.416 79.188 413.984 78.336 413.408 77.64C412.856 76.92 412.16 76.368 411.32 75.984C410.504 75.6 409.58 75.408 408.548 75.408C407.492 75.408 406.556 75.612 405.74 76.02C404.924 76.404 404.228 76.956 403.652 77.676C403.1 78.372 402.668 79.224 402.356 80.232C402.068 81.216 401.924 82.308 401.924 83.508ZM420.968 83.508C420.968 85.644 420.644 87.528 419.996 89.16C419.372 90.768 418.508 92.124 417.404 93.228C416.3 94.308 414.98 95.124 413.444 95.676C411.932 96.228 410.3 96.504 408.548 96.504C406.844 96.504 405.236 96.228 403.724 95.676C402.212 95.124 400.892 94.308 399.764 93.228C398.636 92.124 397.748 90.768 397.1 89.16C396.452 87.528 396.128 85.644 396.128 83.508C396.128 81.372 396.464 79.5 397.136 77.892C397.808 76.26 398.708 74.892 399.836 73.788C400.988 72.684 402.308 71.856 403.796 71.304C405.308 70.752 406.892 70.476 408.548 70.476C410.252 70.476 411.86 70.752 413.372 71.304C414.884 71.856 416.204 72.684 417.332 73.788C418.46 74.892 419.348 76.26 419.996 77.892C420.644 79.5 420.968 81.372 420.968 83.508ZM433.138 70.764C436.858 70.764 439.714 71.424 441.706 72.744C443.698 74.04 444.694 76.176 444.694 79.152C444.694 82.152 443.686 84.324 441.67 85.668C439.654 86.988 436.774 87.648 433.03 87.648H431.266V96H425.65V71.412C426.874 71.172 428.17 71.004 429.538 70.908C430.906 70.812 432.106 70.764 433.138 70.764ZM433.498 75.552C433.09 75.552 432.682 75.564 432.274 75.588C431.89 75.612 431.554 75.636 431.266 75.66V82.86H433.03C434.974 82.86 436.438 82.596 437.422 82.068C438.406 81.54 438.898 80.556 438.898 79.116C438.898 78.42 438.766 77.844 438.502 77.388C438.262 76.932 437.902 76.572 437.422 76.308C436.966 76.02 436.402 75.828 435.73 75.732C435.058 75.612 434.314 75.552 433.498 75.552ZM453.534 83.508C453.534 84.732 453.678 85.836 453.966 86.82C454.278 87.804 454.71 88.656 455.262 89.376C455.838 90.072 456.534 90.612 457.35 90.996C458.166 91.38 459.102 91.572 460.158 91.572C461.19 91.572 462.114 91.38 462.93 90.996C463.77 90.612 464.466 90.072 465.018 89.376C465.594 88.656 466.026 87.804 466.314 86.82C466.626 85.836 466.782 84.732 466.782 83.508C466.782 82.284 466.626 81.18 466.314 80.196C466.026 79.188 465.594 78.336 465.018 77.64C464.466 76.92 463.77 76.368 462.93 75.984C462.114 75.6 461.19 75.408 460.158 75.408C459.102 75.408 458.166 75.612 457.35 76.02C456.534 76.404 455.838 76.956 455.262 77.676C454.71 78.372 454.278 79.224 453.966 80.232C453.678 81.216 453.534 82.308 453.534 83.508ZM472.578 83.508C472.578 85.644 472.254 87.528 471.606 89.16C470.982 90.768 470.118 92.124 469.014 93.228C467.91 94.308 466.59 95.124 465.054 95.676C463.542 96.228 461.91 96.504 460.158 96.504C458.454 96.504 456.846 96.228 455.334 95.676C453.822 95.124 452.502 94.308 451.374 93.228C450.246 92.124 449.358 90.768 448.71 89.16C448.062 87.528 447.738 85.644 447.738 83.508C447.738 81.372 448.074 79.5 448.746 77.892C449.418 76.26 450.318 74.892 451.446 73.788C452.598 72.684 453.918 71.856 455.406 71.304C456.918 70.752 458.502 70.476 460.158 70.476C461.862 70.476 463.47 70.752 464.982 71.304C466.494 71.856 467.814 72.684 468.942 73.788C470.07 74.892 470.958 76.26 471.606 77.892C472.254 79.5 472.578 81.372 472.578 83.508ZM493.927 91.176V96H477.259V71.052H482.875V91.176H493.927ZM501.557 83.508C501.557 84.732 501.701 85.836 501.989 86.82C502.301 87.804 502.733 88.656 503.285 89.376C503.861 90.072 504.557 90.612 505.373 90.996C506.189 91.38 507.125 91.572 508.181 91.572C509.213 91.572 510.137 91.38 510.953 90.996C511.793 90.612 512.489 90.072 513.041 89.376C513.617 88.656 514.049 87.804 514.337 86.82C514.649 85.836 514.805 84.732 514.805 83.508C514.805 82.284 514.649 81.18 514.337 80.196C514.049 79.188 513.617 78.336 513.041 77.64C512.489 76.92 511.793 76.368 510.953 75.984C510.137 75.6 509.213 75.408 508.181 75.408C507.125 75.408 506.189 75.612 505.373 76.02C504.557 76.404 503.861 76.956 503.285 77.676C502.733 78.372 502.301 79.224 501.989 80.232C501.701 81.216 501.557 82.308 501.557 83.508ZM520.601 83.508C520.601 85.644 520.277 87.528 519.629 89.16C519.005 90.768 518.141 92.124 517.037 93.228C515.933 94.308 514.613 95.124 513.077 95.676C511.565 96.228 509.933 96.504 508.181 96.504C506.477 96.504 504.869 96.228 503.357 95.676C501.845 95.124 500.525 94.308 499.397 93.228C498.269 92.124 497.381 90.768 496.733 89.16C496.085 87.528 495.761 85.644 495.761 83.508C495.761 81.372 496.097 79.5 496.769 77.892C497.441 76.26 498.341 74.892 499.469 73.788C500.621 72.684 501.941 71.856 503.429 71.304C504.941 70.752 506.525 70.476 508.181 70.476C509.885 70.476 511.493 70.752 513.005 71.304C514.517 71.856 515.837 72.684 516.965 73.788C518.093 74.892 518.981 76.26 519.629 77.892C520.277 79.5 520.601 81.372 520.601 83.508ZM537.45 75.372C534.834 75.372 532.938 76.104 531.762 77.568C530.61 79.008 530.034 80.988 530.034 83.508C530.034 84.732 530.178 85.848 530.466 86.856C530.754 87.84 531.186 88.692 531.762 89.412C532.338 90.132 533.058 90.696 533.922 91.104C534.786 91.488 535.794 91.68 536.946 91.68C537.57 91.68 538.098 91.668 538.53 91.644C538.986 91.62 539.382 91.572 539.718 91.5V82.824H545.334V95.172C544.662 95.436 543.582 95.712 542.094 96C540.606 96.312 538.77 96.468 536.586 96.468C534.714 96.468 533.01 96.18 531.474 95.604C529.962 95.028 528.666 94.188 527.586 93.084C526.506 91.98 525.666 90.624 525.066 89.016C524.49 87.408 524.202 85.572 524.202 83.508C524.202 81.42 524.526 79.572 525.174 77.964C525.822 76.356 526.71 75 527.838 73.896C528.966 72.768 530.286 71.916 531.798 71.34C533.334 70.764 534.966 70.476 536.694 70.476C537.87 70.476 538.926 70.56 539.862 70.728C540.822 70.872 541.638 71.052 542.31 71.268C543.006 71.46 543.57 71.664 544.002 71.88C544.458 72.096 544.782 72.264 544.974 72.384L543.354 76.884C542.586 76.476 541.698 76.128 540.69 75.84C539.706 75.528 538.626 75.372 537.45 75.372ZM550.56 71.052H556.176V96H550.56V71.052ZM578.654 96C578.39 95.136 578.09 94.248 577.754 93.336C577.442 92.424 577.13 91.512 576.818 90.6H567.098C566.786 91.512 566.462 92.424 566.126 93.336C565.814 94.248 565.526 95.136 565.262 96H559.43C560.366 93.312 561.254 90.828 562.094 88.548C562.934 86.268 563.75 84.12 564.542 82.104C565.358 80.088 566.15 78.18 566.918 76.38C567.71 74.556 568.526 72.78 569.366 71.052H574.73C575.546 72.78 576.35 74.556 577.142 76.38C577.934 78.18 578.726 80.088 579.518 82.104C580.334 84.12 581.162 86.268 582.002 88.548C582.842 90.828 583.73 93.312 584.666 96H578.654ZM571.922 76.704C571.802 77.064 571.622 77.556 571.382 78.18C571.142 78.804 570.866 79.524 570.554 80.34C570.242 81.156 569.894 82.056 569.51 83.04C569.15 84.024 568.778 85.056 568.394 86.136H575.486C575.102 85.056 574.73 84.024 574.37 83.04C574.01 82.056 573.662 81.156 573.326 80.34C573.014 79.524 572.738 78.804 572.498 78.18C572.258 77.556 572.066 77.064 571.922 76.704ZM596.544 96V71.052H613.392V75.768H602.16V80.664H612.132V85.272H602.16V91.284H614.22V96H596.544ZM635.116 96C633.508 93.144 631.768 90.324 629.896 87.54C628.024 84.756 626.032 82.128 623.92 79.656V96H618.376V71.052H622.948C623.74 71.844 624.616 72.816 625.576 73.968C626.536 75.12 627.508 76.356 628.492 77.676C629.5 78.972 630.496 80.328 631.48 81.744C632.464 83.136 633.388 84.48 634.252 85.776V71.052H639.832V96H635.116ZM662.551 96.324C661.183 96.324 659.815 96.276 658.447 96.18C657.103 96.108 655.699 95.916 654.235 95.604V71.412C655.387 71.196 656.647 71.04 658.015 70.944C659.383 70.824 660.655 70.764 661.831 70.764C663.415 70.764 664.867 70.884 666.187 71.124C667.531 71.34 668.683 71.724 669.643 72.276C670.603 72.828 671.347 73.56 671.875 74.472C672.427 75.36 672.703 76.464 672.703 77.784C672.703 79.776 671.743 81.348 669.823 82.5C671.407 83.1 672.487 83.916 673.063 84.948C673.639 85.98 673.927 87.144 673.927 88.44C673.927 91.056 672.967 93.024 671.047 94.344C669.151 95.664 666.319 96.324 662.551 96.324ZM659.707 85.128V91.572C660.115 91.62 660.559 91.656 661.039 91.68C661.519 91.704 662.047 91.716 662.623 91.716C664.303 91.716 665.659 91.476 666.691 90.996C667.723 90.516 668.239 89.628 668.239 88.332C668.239 87.18 667.807 86.364 666.943 85.884C666.079 85.38 664.843 85.128 663.235 85.128H659.707ZM659.707 80.844H662.443C664.171 80.844 665.407 80.628 666.151 80.196C666.895 79.74 667.267 79.02 667.267 78.036C667.267 77.028 666.883 76.32 666.115 75.912C665.347 75.504 664.219 75.3 662.731 75.3C662.251 75.3 661.735 75.312 661.183 75.336C660.631 75.336 660.139 75.36 659.707 75.408V80.844ZM688.179 96.504C686.427 96.504 684.915 96.264 683.643 95.784C682.371 95.28 681.315 94.596 680.475 93.732C679.659 92.844 679.047 91.8 678.639 90.6C678.255 89.376 678.063 88.032 678.063 86.568V71.052H683.679V86.1C683.679 87.108 683.787 87.972 684.003 88.692C684.243 89.388 684.555 89.964 684.939 90.42C685.347 90.852 685.827 91.164 686.379 91.356C686.955 91.548 687.579 91.644 688.251 91.644C689.619 91.644 690.723 91.224 691.563 90.384C692.427 89.544 692.859 88.116 692.859 86.1V71.052H698.475V86.568C698.475 88.032 698.271 89.376 697.863 90.6C697.455 91.824 696.831 92.88 695.991 93.768C695.151 94.632 694.083 95.304 692.787 95.784C691.491 96.264 689.955 96.504 688.179 96.504ZM710.68 91.716C711.472 91.716 712.12 91.656 712.624 91.536C713.152 91.392 713.572 91.212 713.884 90.996C714.196 90.756 714.412 90.48 714.532 90.168C714.652 89.856 714.712 89.508 714.712 89.124C714.712 88.308 714.328 87.636 713.56 87.108C712.792 86.556 711.472 85.968 709.6 85.344C708.784 85.056 707.968 84.732 707.152 84.372C706.336 83.988 705.604 83.52 704.956 82.968C704.308 82.392 703.78 81.708 703.372 80.916C702.964 80.1 702.76 79.116 702.76 77.964C702.76 76.812 702.976 75.78 703.408 74.868C703.84 73.932 704.452 73.14 705.244 72.492C706.036 71.844 706.996 71.352 708.124 71.016C709.252 70.656 710.524 70.476 711.94 70.476C713.62 70.476 715.072 70.656 716.296 71.016C717.52 71.376 718.528 71.772 719.32 72.204L717.7 76.632C717.004 76.272 716.224 75.96 715.36 75.696C714.52 75.408 713.5 75.264 712.3 75.264C710.956 75.264 709.984 75.456 709.384 75.84C708.808 76.2 708.52 76.764 708.52 77.532C708.52 77.988 708.628 78.372 708.844 78.684C709.06 78.996 709.36 79.284 709.744 79.548C710.152 79.788 710.608 80.016 711.112 80.232C711.64 80.424 712.216 80.628 712.84 80.844C714.136 81.324 715.264 81.804 716.224 82.284C717.184 82.74 717.976 83.28 718.6 83.904C719.248 84.528 719.728 85.26 720.04 86.1C720.352 86.94 720.508 87.96 720.508 89.16C720.508 91.488 719.692 93.3 718.06 94.596C716.428 95.868 713.968 96.504 710.68 96.504C709.576 96.504 708.58 96.432 707.692 96.288C706.804 96.168 706.012 96.012 705.316 95.82C704.644 95.628 704.056 95.424 703.552 95.208C703.072 94.992 702.664 94.788 702.328 94.596L703.912 90.132C704.656 90.54 705.568 90.912 706.648 91.248C707.752 91.56 709.096 91.716 710.68 91.716Z" fill="#002855"/>
<path d="M346 249V294.5C346 295.428 345.631 296.318 344.975 296.975C344.318 297.631 343.428 298 342.5 298H335.5V305H342.5C343.428 305 344.318 305.369 344.975 306.025C345.631 306.682 346 307.572 346 308.5C346 309.428 345.631 310.318 344.975 310.975C344.318 311.631 343.428 312 342.5 312H321.5C320.572 312 319.682 311.631 319.025 310.975C318.369 310.318 318 309.428 318 308.5C318 307.572 318.369 306.682 319.025 306.025C319.682 305.369 320.572 305 321.5 305H328.5V298H307.5C304.716 297.997 302.047 296.89 300.079 294.921C298.11 292.953 297.003 290.284 297 287.5V256C297.003 253.216 298.11 250.547 300.079 248.579C302.047 246.61 304.716 245.503 307.5 245.5H342.5C343.428 245.5 344.318 245.869 344.975 246.525C345.631 247.182 346 248.072 346 249ZM402 235V305C401.998 306.856 401.26 308.635 399.947 309.947C398.635 311.26 396.856 311.998 395 312H360C358.144 311.998 356.365 311.26 355.053 309.947C353.74 308.635 353.002 306.856 353 305V235C353.002 233.144 353.74 231.365 355.053 230.053C356.365 228.74 358.144 228.002 360 228H395C396.856 228.002 398.635 228.74 399.947 230.053C401.26 231.365 401.998 233.144 402 235ZM382.75 292.75C382.75 291.712 382.442 290.697 381.865 289.833C381.288 288.97 380.468 288.297 379.509 287.9C378.55 287.502 377.494 287.398 376.476 287.601C375.457 287.803 374.522 288.303 373.788 289.038C373.053 289.772 372.553 290.707 372.351 291.726C372.148 292.744 372.252 293.8 372.65 294.759C373.047 295.718 373.72 296.538 374.583 297.115C375.447 297.692 376.462 298 377.5 298C378.892 297.998 380.226 297.445 381.211 296.461C382.195 295.476 382.748 294.142 382.75 292.75ZM391.5 259.5C391.5 258.572 391.131 257.682 390.475 257.025C389.818 256.369 388.928 256 388 256H367C366.072 256 365.182 256.369 364.525 257.025C363.869 257.682 363.5 258.572 363.5 259.5C363.5 260.428 363.869 261.318 364.525 261.975C365.182 262.631 366.072 263 367 263H388C388.928 263 389.818 262.631 390.475 261.975C391.131 261.318 391.5 260.428 391.5 259.5ZM391.5 245.5C391.5 244.572 391.131 243.682 390.475 243.025C389.818 242.369 388.928 242 388 242H367C366.072 242 365.182 242.369 364.525 243.025C363.869 243.682 363.5 244.572 363.5 245.5C363.5 246.428 363.869 247.318 364.525 247.975C365.182 248.631 366.072 249 367 249H388C388.928 249 389.818 248.631 390.475 247.975C391.131 247.318 391.5 246.428 391.5 245.5Z" fill="#002855"/>
</svg>
