<svg width="923" height="498" viewBox="0 0 923 498" fill="none" xmlns="http://www.w3.org/2000/svg">
<rect width="923" height="498" fill="white"/>
<rect x="377" y="249" width="5" height="30" rx="1" transform="rotate(-89.9273 377 249)" fill="#2FE4B9"/>
<rect x="495.374" y="151" width="5" height="31" rx="1" transform="rotate(0.690577 495.374 151)" fill="#2FE4B9"/>
<rect x="567" y="324.254" width="5" height="31" rx="1" transform="rotate(-40.6052 567 324.254)" fill="#2FE4B9"/>
<rect x="424.186" y="313" width="5" height="31" rx="1" transform="rotate(54.3348 424.186 313)" fill="#2FE4B9"/>
<path d="M683.933 222.25V261.792C683.933 262.598 683.61 263.372 683.035 263.942C682.46 264.513 681.68 264.833 680.867 264.833H674.733V270.917H680.867C681.68 270.917 682.46 271.237 683.035 271.808C683.61 272.378 683.933 273.152 683.933 273.958C683.933 274.765 683.61 275.539 683.035 276.109C682.46 276.68 681.68 277 680.867 277H662.467C661.653 277 660.873 276.68 660.298 276.109C659.723 275.539 659.4 274.765 659.4 273.958C659.4 273.152 659.723 272.378 660.298 271.808C660.873 271.237 661.653 270.917 662.467 270.917H668.6V264.833H650.2C647.761 264.831 645.422 263.868 643.698 262.158C641.973 260.447 641.003 258.128 641 255.708V228.333C641.003 225.914 641.973 223.595 643.698 221.884C645.422 220.173 647.761 219.211 650.2 219.208H680.867C681.68 219.208 682.46 219.529 683.035 220.099C683.61 220.67 683.933 221.443 683.933 222.25ZM733 210.083V270.917C732.998 272.53 732.351 274.076 731.202 275.216C730.052 276.357 728.493 276.998 726.867 277H696.2C694.574 276.998 693.015 276.357 691.865 275.216C690.715 274.076 690.069 272.53 690.067 270.917V210.083C690.069 208.47 690.715 206.924 691.865 205.784C693.015 204.643 694.574 204.002 696.2 204H726.867C728.493 204.002 730.052 204.643 731.202 205.784C732.351 206.924 732.998 208.47 733 210.083ZM716.133 260.271C716.133 259.368 715.864 258.486 715.358 257.736C714.853 256.986 714.134 256.401 713.294 256.056C712.453 255.71 711.528 255.62 710.636 255.796C709.744 255.972 708.924 256.407 708.281 257.045C707.637 257.683 707.199 258.496 707.022 259.381C706.844 260.266 706.935 261.183 707.283 262.017C707.632 262.851 708.221 263.563 708.978 264.064C709.734 264.566 710.624 264.833 711.533 264.833C712.753 264.832 713.922 264.351 714.785 263.496C715.647 262.64 716.132 261.48 716.133 260.271ZM723.8 231.375C723.8 230.568 723.477 229.795 722.902 229.224C722.327 228.654 721.547 228.333 720.733 228.333H702.333C701.52 228.333 700.74 228.654 700.165 229.224C699.59 229.795 699.267 230.568 699.267 231.375C699.267 232.182 699.59 232.955 700.165 233.526C700.74 234.096 701.52 234.417 702.333 234.417H720.733C721.547 234.417 722.327 234.096 722.902 233.526C723.477 232.955 723.8 232.182 723.8 231.375ZM723.8 219.208C723.8 218.402 723.477 217.628 722.902 217.058C722.327 216.487 721.547 216.167 720.733 216.167H702.333C701.52 216.167 700.74 216.487 700.165 217.058C699.59 217.628 699.267 218.402 699.267 219.208C699.267 220.015 699.59 220.789 700.165 221.359C700.74 221.93 701.52 222.25 702.333 222.25H720.733C721.547 222.25 722.327 221.93 722.902 221.359C723.477 220.789 723.8 220.015 723.8 219.208Z" fill="#002855"/>
<path d="M621.933 353.25V392.792C621.933 393.598 621.61 394.372 621.035 394.942C620.46 395.513 619.68 395.833 618.867 395.833H612.733V401.917H618.867C619.68 401.917 620.46 402.237 621.035 402.808C621.61 403.378 621.933 404.152 621.933 404.958C621.933 405.765 621.61 406.539 621.035 407.109C620.46 407.68 619.68 408 618.867 408H600.467C599.653 408 598.873 407.68 598.298 407.109C597.723 406.539 597.4 405.765 597.4 404.958C597.4 404.152 597.723 403.378 598.298 402.808C598.873 402.237 599.653 401.917 600.467 401.917H606.6V395.833H588.2C585.761 395.831 583.422 394.868 581.698 393.158C579.973 391.447 579.003 389.128 579 386.708V359.333C579.003 356.914 579.973 354.595 581.698 352.884C583.422 351.173 585.761 350.211 588.2 350.208H618.867C619.68 350.208 620.46 350.529 621.035 351.099C621.61 351.67 621.933 352.443 621.933 353.25ZM671 341.083V401.917C670.998 403.53 670.351 405.076 669.202 406.216C668.052 407.357 666.493 407.998 664.867 408H634.2C632.574 407.998 631.015 407.357 629.865 406.216C628.715 405.076 628.069 403.53 628.067 401.917V341.083C628.069 339.47 628.715 337.924 629.865 336.784C631.015 335.643 632.574 335.002 634.2 335H664.867C666.493 335.002 668.052 335.643 669.202 336.784C670.351 337.924 670.998 339.47 671 341.083ZM654.133 391.271C654.133 390.368 653.864 389.486 653.358 388.736C652.853 387.986 652.134 387.401 651.294 387.056C650.453 386.71 649.528 386.62 648.636 386.796C647.744 386.972 646.924 387.407 646.281 388.045C645.637 388.683 645.199 389.496 645.022 390.381C644.844 391.266 644.935 392.183 645.283 393.017C645.632 393.851 646.221 394.563 646.978 395.064C647.734 395.566 648.624 395.833 649.533 395.833C650.753 395.832 651.922 395.351 652.785 394.496C653.647 393.64 654.132 392.48 654.133 391.271ZM661.8 362.375C661.8 361.568 661.477 360.795 660.902 360.224C660.327 359.654 659.547 359.333 658.733 359.333H640.333C639.52 359.333 638.74 359.654 638.165 360.224C637.59 360.795 637.267 361.568 637.267 362.375C637.267 363.182 637.59 363.955 638.165 364.526C638.74 365.096 639.52 365.417 640.333 365.417H658.733C659.547 365.417 660.327 365.096 660.902 364.526C661.477 363.955 661.8 363.182 661.8 362.375ZM661.8 350.208C661.8 349.402 661.477 348.628 660.902 348.058C660.327 347.487 659.547 347.167 658.733 347.167H640.333C639.52 347.167 638.74 347.487 638.165 348.058C637.59 348.628 637.267 349.402 637.267 350.208C637.267 351.015 637.59 351.789 638.165 352.359C638.74 352.93 639.52 353.25 640.333 353.25H658.733C659.547 353.25 660.327 352.93 660.902 352.359C661.477 351.789 661.8 351.015 661.8 350.208Z" fill="#002855"/>
<path d="M350.467 353.25V392.792C350.467 393.598 350.147 394.372 349.578 394.942C349.009 395.513 348.238 395.833 347.433 395.833H341.367V401.917H347.433C348.238 401.917 349.009 402.237 349.578 402.808C350.147 403.378 350.467 404.152 350.467 404.958C350.467 405.765 350.147 406.539 349.578 407.109C349.009 407.68 348.238 408 347.433 408H329.233C328.429 408 327.657 407.68 327.088 407.109C326.52 406.539 326.2 405.765 326.2 404.958C326.2 404.152 326.52 403.378 327.088 402.808C327.657 402.237 328.429 401.917 329.233 401.917H335.3V395.833H317.1C314.687 395.831 312.374 394.868 310.668 393.158C308.962 391.447 308.003 389.128 308 386.708V359.333C308.003 356.914 308.962 354.595 310.668 352.884C312.374 351.173 314.687 350.211 317.1 350.208H347.433C348.238 350.208 349.009 350.529 349.578 351.099C350.147 351.67 350.467 352.443 350.467 353.25ZM399 341.083V401.917C398.998 403.53 398.358 405.076 397.221 406.216C396.084 407.357 394.542 407.998 392.933 408H362.6C360.992 407.998 359.45 407.357 358.312 406.216C357.175 405.076 356.535 403.53 356.533 401.917V341.083C356.535 339.47 357.175 337.924 358.312 336.784C359.45 335.643 360.992 335.002 362.6 335H392.933C394.542 335.002 396.084 335.643 397.221 336.784C398.358 337.924 398.998 339.47 399 341.083ZM382.317 391.271C382.317 390.368 382.05 389.486 381.55 388.736C381.05 387.986 380.339 387.401 379.508 387.056C378.676 386.71 377.762 386.62 376.879 386.796C375.996 386.972 375.186 387.407 374.549 388.045C373.913 388.683 373.48 389.496 373.304 390.381C373.129 391.266 373.219 392.183 373.563 393.017C373.907 393.851 374.491 394.563 375.239 395.064C375.987 395.566 376.867 395.833 377.767 395.833C378.973 395.832 380.13 395.351 380.983 394.496C381.836 393.64 382.315 392.48 382.317 391.271ZM389.9 362.375C389.9 361.568 389.58 360.795 389.012 360.224C388.443 359.654 387.671 359.333 386.867 359.333H368.667C367.862 359.333 367.091 359.654 366.522 360.224C365.953 360.795 365.633 361.568 365.633 362.375C365.633 363.182 365.953 363.955 366.522 364.526C367.091 365.096 367.862 365.417 368.667 365.417H386.867C387.671 365.417 388.443 365.096 389.012 364.526C389.58 363.955 389.9 363.182 389.9 362.375ZM389.9 350.208C389.9 349.402 389.58 348.628 389.012 348.058C388.443 347.487 387.671 347.167 386.867 347.167H368.667C367.862 347.167 367.091 347.487 366.522 348.058C365.953 348.628 365.633 349.402 365.633 350.208C365.633 351.015 365.953 351.789 366.522 352.359C367.091 352.93 367.862 353.25 368.667 353.25H386.867C387.671 353.25 388.443 352.93 389.012 352.359C389.58 351.789 389.9 351.015 389.9 350.208Z" fill="#002855"/>
<rect x="618.999" y="244" width="5" height="30" rx="1" transform="rotate(89.5675 618.999 244)" fill="#2FE4B9"/>
<path d="M298.933 212.25V251.792C298.933 252.598 298.61 253.372 298.035 253.942C297.46 254.513 296.68 254.833 295.867 254.833H289.733V260.917H295.867C296.68 260.917 297.46 261.237 298.035 261.808C298.61 262.378 298.933 263.152 298.933 263.958C298.933 264.765 298.61 265.539 298.035 266.109C297.46 266.68 296.68 267 295.867 267H277.467C276.653 267 275.873 266.68 275.298 266.109C274.723 265.539 274.4 264.765 274.4 263.958C274.4 263.152 274.723 262.378 275.298 261.808C275.873 261.237 276.653 260.917 277.467 260.917H283.6V254.833H265.2C262.761 254.831 260.422 253.868 258.698 252.158C256.973 250.447 256.003 248.128 256 245.708V218.333C256.003 215.914 256.973 213.595 258.698 211.884C260.422 210.173 262.761 209.211 265.2 209.208H295.867C296.68 209.208 297.46 209.529 298.035 210.099C298.61 210.67 298.933 211.443 298.933 212.25ZM348 200.083V260.917C347.998 262.53 347.351 264.076 346.202 265.216C345.052 266.357 343.493 266.998 341.867 267H311.2C309.574 266.998 308.015 266.357 306.865 265.216C305.715 264.076 305.069 262.53 305.067 260.917V200.083C305.069 198.47 305.715 196.924 306.865 195.784C308.015 194.643 309.574 194.002 311.2 194H341.867C343.493 194.002 345.052 194.643 346.202 195.784C347.351 196.924 347.998 198.47 348 200.083ZM331.133 250.271C331.133 249.368 330.864 248.486 330.358 247.736C329.853 246.986 329.134 246.401 328.294 246.056C327.453 245.71 326.528 245.62 325.636 245.796C324.744 245.972 323.924 246.407 323.281 247.045C322.637 247.683 322.199 248.496 322.022 249.381C321.844 250.266 321.935 251.183 322.283 252.017C322.632 252.851 323.221 253.563 323.978 254.064C324.734 254.566 325.624 254.833 326.533 254.833C327.753 254.832 328.922 254.351 329.785 253.496C330.647 252.64 331.132 251.48 331.133 250.271ZM338.8 221.375C338.8 220.568 338.477 219.795 337.902 219.224C337.327 218.654 336.547 218.333 335.733 218.333H317.333C316.52 218.333 315.74 218.654 315.165 219.224C314.59 219.795 314.267 220.568 314.267 221.375C314.267 222.182 314.59 222.955 315.165 223.526C315.74 224.096 316.52 224.417 317.333 224.417H335.733C336.547 224.417 337.327 224.096 337.902 223.526C338.477 222.955 338.8 222.182 338.8 221.375ZM338.8 209.208C338.8 208.402 338.477 207.628 337.902 207.058C337.327 206.487 336.547 206.167 335.733 206.167H317.333C316.52 206.167 315.74 206.487 315.165 207.058C314.59 207.628 314.267 208.402 314.267 209.208C314.267 210.015 314.59 210.789 315.165 211.359C315.74 211.93 316.52 212.25 317.333 212.25H335.733C336.547 212.25 337.327 211.93 337.902 211.359C338.477 210.789 338.8 210.015 338.8 209.208Z" fill="#002855"/>
<path d="M485.467 88.5V128.583C485.467 129.401 485.147 130.185 484.578 130.764C484.009 131.342 483.238 131.667 482.433 131.667H476.367V137.833H482.433C483.238 137.833 484.009 138.158 484.578 138.736C485.147 139.315 485.467 140.099 485.467 140.917C485.467 141.734 485.147 142.519 484.578 143.097C484.009 143.675 483.238 144 482.433 144H464.233C463.429 144 462.657 143.675 462.088 143.097C461.52 142.519 461.2 141.734 461.2 140.917C461.2 140.099 461.52 139.315 462.088 138.736C462.657 138.158 463.429 137.833 464.233 137.833H470.3V131.667H452.1C449.687 131.664 447.374 130.688 445.668 128.954C443.962 127.22 443.003 124.869 443 122.417V94.6667C443.003 92.2143 443.962 89.8631 445.668 88.129C447.374 86.3949 449.687 85.4195 452.1 85.4167H482.433C483.238 85.4167 484.009 85.7415 484.578 86.3198C485.147 86.898 485.467 87.6823 485.467 88.5ZM534 76.1667V137.833C533.998 139.468 533.358 141.036 532.221 142.192C531.084 143.348 529.542 143.998 527.933 144H497.6C495.992 143.998 494.45 143.348 493.312 142.192C492.175 141.036 491.535 139.468 491.533 137.833V76.1667C491.535 74.5317 492.175 72.9643 493.312 71.8082C494.45 70.6522 495.992 70.0019 497.6 70H527.933C529.542 70.0019 531.084 70.6522 532.221 71.8082C533.358 72.9643 533.998 74.5317 534 76.1667ZM517.317 127.042C517.317 126.127 517.05 125.233 516.55 124.472C516.05 123.712 515.339 123.119 514.508 122.769C513.676 122.419 512.762 122.327 511.879 122.506C510.996 122.684 510.186 123.124 509.549 123.771C508.913 124.418 508.48 125.242 508.304 126.139C508.129 127.037 508.219 127.966 508.563 128.812C508.907 129.657 509.491 130.379 510.239 130.887C510.987 131.395 511.867 131.667 512.767 131.667C513.973 131.665 515.13 131.178 515.983 130.311C516.836 129.443 517.315 128.268 517.317 127.042ZM524.9 97.75C524.9 96.9323 524.58 96.148 524.012 95.5698C523.443 94.9915 522.671 94.6667 521.867 94.6667H503.667C502.862 94.6667 502.091 94.9915 501.522 95.5698C500.953 96.148 500.633 96.9322 500.633 97.75C500.633 98.5678 500.953 99.352 501.522 99.9302C502.091 100.508 502.862 100.833 503.667 100.833H521.867C522.671 100.833 523.443 100.508 524.012 99.9302C524.58 99.352 524.9 98.5677 524.9 97.75ZM524.9 85.4167C524.9 84.5989 524.58 83.8147 524.012 83.2364C523.443 82.6582 522.671 82.3333 521.867 82.3333H503.667C502.862 82.3333 502.091 82.6582 501.522 83.2364C500.953 83.8147 500.633 84.5989 500.633 85.4167C500.633 86.2344 500.953 87.0187 501.522 87.5969C502.091 88.1751 502.862 88.5 503.667 88.5H521.867C522.671 88.5 523.443 88.1751 524.012 87.5969C524.58 87.0187 524.9 86.2344 524.9 85.4167Z" fill="#002855"/>
<ellipse cx="498" cy="267.5" rx="82" ry="81.5" fill="#2FE4B9"/>
<ellipse cx="497.5" cy="268" rx="73.5" ry="73" fill="white"/>
<path d="M486.118 211.753C494.032 210.255 501.876 210.356 509.65 212.058C517.425 213.76 524.398 216.702 530.569 220.885C536.741 225.068 542.044 230.447 546.479 237.02C550.914 243.594 553.877 250.817 555.368 258.689C556.859 266.562 556.741 274.368 555.016 282.108C553.292 289.848 550.322 296.793 546.106 302.942C541.891 309.092 536.477 314.38 529.863 318.806C523.248 323.232 515.985 326.195 508.071 327.693C498.494 329.507 489.124 329.034 479.961 326.274C470.799 323.515 462.808 318.888 455.99 312.395C449.171 305.902 444.193 298.181 441.054 289.23L456.432 286.319C460.327 295.821 466.848 303.077 475.994 308.086C485.14 313.096 494.883 314.622 505.225 312.664C511.07 311.557 516.441 309.359 521.338 306.069C526.234 302.778 530.242 298.857 533.362 294.305C536.483 289.752 538.688 284.609 539.977 278.874C541.267 273.14 541.361 267.365 540.26 261.55C539.159 255.735 536.96 250.394 533.663 245.528C530.366 240.662 526.434 236.68 521.865 233.584C517.297 230.487 512.132 228.303 506.372 227.031C500.612 225.758 494.809 225.676 488.964 226.782C478.622 228.741 470.11 233.723 463.429 241.73C456.748 249.736 456.5 250.5 454.02 260.587L446.634 260.594L439.74 261.058C441 252 440.522 249.749 444.5 243C448.473 234.464 452.954 229.269 460.473 223.351C467.992 217.432 476.541 213.567 486.118 211.753Z" fill="#002855"/>
<path d="M451.692 273.87C450.969 275.081 449.252 275.183 448.391 274.066L433.516 254.775C432.535 253.503 433.378 251.652 434.981 251.557L462.346 249.933C463.949 249.838 465.005 251.576 464.181 252.955L451.692 273.87Z" fill="#002855"/>
</svg>
