<svg width="923" height="498" viewBox="0 0 923 498" fill="none" xmlns="http://www.w3.org/2000/svg">
<g clip-path="url(#clip0_101_78)">
<path d="M922.793 -0.0870056H-0.207001V497.913H922.793V-0.0870056Z" fill="#3072E2"/>
<path d="M710.575 47.784C709.183 43.168 713.527 38.879 718.125 40.33L918.6 103.589C921.1 104.377 922.8 106.693 922.8 109.311V209.413V260.913V286.913V312.913V404.413V491.913C922.8 495.227 920.11 497.913 916.8 497.913H850.75C848.11 497.913 845.77 496.179 845.01 493.645L710.575 47.784Z" fill="#6193E9" fill-opacity="0.74"/>
<path d="M922.3 141.913L696.797 202.413L573.297 1.41299H922.3V141.913Z" fill="#6193E9" fill-opacity="0.23"/>
<path d="M671.797 207.913H794.797C799.215 207.913 802.797 211.495 802.797 215.913V254.913C802.797 259.331 799.215 262.913 794.797 262.913H671.797V207.913Z" fill="#20BF6B"/>
<path d="M229.797 101.913L0.296997 496.413V2.41299L229.797 101.913Z" fill="#6193E9" fill-opacity="0.74"/>
<path d="M134.797 215.913C134.797 211.495 138.379 207.913 142.797 207.913H671.797V262.913H142.797C138.379 262.913 134.797 259.331 134.797 254.913V215.913Z" fill="white"/>
<path d="M213.277 225.113C215.613 225.113 217.405 225.561 218.653 226.457C219.917 227.337 220.549 228.657 220.549 230.417C220.549 231.377 220.373 232.201 220.021 232.889C219.685 233.561 219.189 234.113 218.533 234.545C217.893 234.961 217.109 235.265 216.181 235.457C215.253 235.649 214.205 235.745 213.037 235.745H211.189V241.913H208.861V225.521C209.517 225.361 210.245 225.257 211.045 225.209C211.861 225.145 212.605 225.113 213.277 225.113ZM213.469 227.153C212.477 227.153 211.717 227.177 211.189 227.225V233.753H212.941C213.741 233.753 214.461 233.705 215.101 233.609C215.741 233.497 216.277 233.321 216.709 233.081C217.157 232.825 217.501 232.481 217.741 232.049C217.981 231.617 218.101 231.065 218.101 230.393C218.101 229.753 217.973 229.225 217.717 228.809C217.477 228.393 217.141 228.065 216.709 227.825C216.293 227.569 215.805 227.393 215.245 227.297C214.685 227.201 214.093 227.153 213.469 227.153ZM221.849 235.697C221.849 234.593 222.009 233.633 222.329 232.817C222.649 231.985 223.073 231.297 223.601 230.753C224.129 230.209 224.737 229.801 225.425 229.529C226.113 229.257 226.817 229.121 227.537 229.121C229.217 229.121 230.505 229.649 231.401 230.705C232.297 231.745 232.745 233.337 232.745 235.481C232.745 235.577 232.745 235.705 232.745 235.865C232.745 236.009 232.737 236.145 232.721 236.273H224.177C224.273 237.569 224.649 238.553 225.305 239.225C225.961 239.897 226.985 240.233 228.377 240.233C229.161 240.233 229.817 240.169 230.345 240.041C230.889 239.897 231.297 239.761 231.569 239.633L231.881 241.505C231.609 241.649 231.129 241.801 230.441 241.961C229.769 242.121 229.001 242.201 228.137 242.201C227.049 242.201 226.105 242.041 225.305 241.721C224.521 241.385 223.873 240.929 223.361 240.353C222.849 239.777 222.465 239.097 222.209 238.313C221.969 237.513 221.849 236.641 221.849 235.697ZM230.417 234.473C230.433 233.465 230.177 232.641 229.649 232.001C229.137 231.345 228.425 231.017 227.513 231.017C227.001 231.017 226.545 231.121 226.145 231.329C225.761 231.521 225.433 231.777 225.161 232.097C224.889 232.417 224.673 232.785 224.513 233.201C224.369 233.617 224.273 234.041 224.225 234.473H230.417ZM243.775 240.665C243.583 240.793 243.207 240.961 242.647 241.169C242.103 241.361 241.463 241.457 240.727 241.457C239.975 241.457 239.263 241.337 238.591 241.097C237.935 240.857 237.359 240.489 236.863 239.993C236.367 239.481 235.975 238.849 235.687 238.097C235.399 237.345 235.255 236.449 235.255 235.409C235.255 234.497 235.391 233.665 235.663 232.913C235.935 232.145 236.327 231.489 236.839 230.945C237.367 230.385 238.007 229.953 238.759 229.649C239.511 229.329 240.359 229.169 241.303 229.169C242.343 229.169 243.247 229.249 244.015 229.409C244.799 229.553 245.455 229.689 245.983 229.817V240.953C245.983 242.873 245.487 244.265 244.495 245.129C243.503 245.993 241.999 246.425 239.983 246.425C239.199 246.425 238.455 246.361 237.751 246.233C237.063 246.105 236.463 245.953 235.951 245.777L236.359 243.833C236.807 244.009 237.351 244.161 237.991 244.289C238.647 244.433 239.327 244.505 240.031 244.505C241.359 244.505 242.311 244.241 242.887 243.713C243.479 243.185 243.775 242.345 243.775 241.193V240.665ZM243.751 231.401C243.527 231.337 243.223 231.281 242.839 231.233C242.471 231.169 241.967 231.137 241.327 231.137C240.127 231.137 239.199 231.529 238.543 232.313C237.903 233.097 237.583 234.137 237.583 235.433C237.583 236.153 237.671 236.769 237.847 237.281C238.039 237.793 238.287 238.217 238.591 238.553C238.911 238.889 239.271 239.137 239.671 239.297C240.087 239.457 240.511 239.537 240.943 239.537C241.535 239.537 242.079 239.457 242.575 239.297C243.071 239.121 243.463 238.921 243.751 238.697V231.401ZM254.05 240.305C254.578 240.305 255.042 240.297 255.442 240.281C255.858 240.249 256.202 240.201 256.474 240.137V236.417C256.314 236.337 256.05 236.273 255.682 236.225C255.33 236.161 254.898 236.129 254.386 236.129C254.05 236.129 253.69 236.153 253.306 236.201C252.938 236.249 252.594 236.353 252.274 236.513C251.97 236.657 251.714 236.865 251.506 237.137C251.298 237.393 251.194 237.737 251.194 238.169C251.194 238.969 251.45 239.529 251.962 239.849C252.474 240.153 253.17 240.305 254.05 240.305ZM253.858 229.121C254.754 229.121 255.506 229.241 256.114 229.481C256.738 229.705 257.234 230.033 257.602 230.465C257.986 230.881 258.258 231.385 258.418 231.977C258.578 232.553 258.658 233.193 258.658 233.897V241.697C258.466 241.729 258.194 241.777 257.842 241.841C257.506 241.889 257.122 241.937 256.69 241.985C256.258 242.033 255.786 242.073 255.274 242.105C254.778 242.153 254.282 242.177 253.786 242.177C253.082 242.177 252.434 242.105 251.842 241.961C251.25 241.817 250.738 241.593 250.306 241.289C249.874 240.969 249.538 240.553 249.298 240.041C249.058 239.529 248.938 238.913 248.938 238.193C248.938 237.505 249.074 236.913 249.346 236.417C249.634 235.921 250.018 235.521 250.498 235.217C250.978 234.913 251.538 234.689 252.178 234.545C252.818 234.401 253.49 234.329 254.194 234.329C254.418 234.329 254.65 234.345 254.89 234.377C255.13 234.393 255.354 234.425 255.562 234.473C255.786 234.505 255.978 234.537 256.138 234.569C256.298 234.601 256.41 234.625 256.474 234.641V234.017C256.474 233.649 256.434 233.289 256.354 232.937C256.274 232.569 256.13 232.249 255.922 231.977C255.714 231.689 255.426 231.465 255.058 231.305C254.706 231.129 254.242 231.041 253.666 231.041C252.93 231.041 252.282 231.097 251.722 231.209C251.178 231.305 250.77 231.409 250.498 231.521L250.234 229.673C250.522 229.545 251.002 229.425 251.674 229.313C252.346 229.185 253.074 229.121 253.858 229.121ZM267.224 235.697C267.224 234.593 267.384 233.633 267.704 232.817C268.024 231.985 268.448 231.297 268.976 230.753C269.504 230.209 270.112 229.801 270.8 229.529C271.488 229.257 272.192 229.121 272.912 229.121C274.592 229.121 275.88 229.649 276.776 230.705C277.672 231.745 278.12 233.337 278.12 235.481C278.12 235.577 278.12 235.705 278.12 235.865C278.12 236.009 278.112 236.145 278.096 236.273H269.552C269.648 237.569 270.024 238.553 270.68 239.225C271.336 239.897 272.36 240.233 273.752 240.233C274.536 240.233 275.192 240.169 275.72 240.041C276.264 239.897 276.672 239.761 276.944 239.633L277.256 241.505C276.984 241.649 276.504 241.801 275.816 241.961C275.144 242.121 274.376 242.201 273.512 242.201C272.424 242.201 271.48 242.041 270.68 241.721C269.896 241.385 269.248 240.929 268.736 240.353C268.224 239.777 267.84 239.097 267.584 238.313C267.344 237.513 267.224 236.641 267.224 235.697ZM275.792 234.473C275.808 233.465 275.552 232.641 275.024 232.001C274.512 231.345 273.8 231.017 272.888 231.017C272.376 231.017 271.92 231.121 271.52 231.329C271.136 231.521 270.808 231.777 270.536 232.097C270.264 232.417 270.048 232.785 269.888 233.201C269.744 233.617 269.648 234.041 269.6 234.473H275.792ZM285.07 242.153C283.694 242.121 282.718 241.825 282.142 241.265C281.566 240.705 281.278 239.833 281.278 238.649V223.673L283.51 223.289V238.289C283.51 238.657 283.542 238.961 283.606 239.201C283.67 239.441 283.774 239.633 283.918 239.777C284.062 239.921 284.254 240.033 284.494 240.113C284.734 240.177 285.03 240.233 285.382 240.281L285.07 242.153ZM292.747 235.697C292.747 234.593 292.907 233.633 293.227 232.817C293.547 231.985 293.971 231.297 294.499 230.753C295.027 230.209 295.635 229.801 296.323 229.529C297.011 229.257 297.715 229.121 298.435 229.121C300.115 229.121 301.403 229.649 302.299 230.705C303.195 231.745 303.643 233.337 303.643 235.481C303.643 235.577 303.643 235.705 303.643 235.865C303.643 236.009 303.635 236.145 303.619 236.273H295.075C295.171 237.569 295.547 238.553 296.203 239.225C296.859 239.897 297.883 240.233 299.275 240.233C300.059 240.233 300.715 240.169 301.243 240.041C301.787 239.897 302.195 239.761 302.467 239.633L302.779 241.505C302.507 241.649 302.027 241.801 301.339 241.961C300.667 242.121 299.899 242.201 299.035 242.201C297.947 242.201 297.003 242.041 296.203 241.721C295.419 241.385 294.771 240.929 294.259 240.353C293.747 239.777 293.363 239.097 293.107 238.313C292.867 237.513 292.747 236.641 292.747 235.697ZM301.315 234.473C301.331 233.465 301.075 232.641 300.547 232.001C300.035 231.345 299.323 231.017 298.411 231.017C297.899 231.017 297.443 231.121 297.043 231.329C296.659 231.521 296.331 231.777 296.059 232.097C295.787 232.417 295.571 232.785 295.411 233.201C295.267 233.617 295.171 234.041 295.123 234.473H301.315ZM306.85 229.793C307.362 229.665 308.042 229.529 308.89 229.385C309.738 229.241 310.714 229.169 311.818 229.169C312.81 229.169 313.634 229.313 314.29 229.601C314.946 229.873 315.466 230.265 315.85 230.777C316.25 231.273 316.53 231.873 316.69 232.577C316.85 233.281 316.93 234.057 316.93 234.905V241.913H314.698V235.385C314.698 234.617 314.642 233.961 314.53 233.417C314.434 232.873 314.266 232.433 314.026 232.097C313.786 231.761 313.466 231.521 313.066 231.377C312.666 231.217 312.17 231.137 311.578 231.137C311.338 231.137 311.09 231.145 310.834 231.161C310.578 231.177 310.33 231.201 310.09 231.233C309.866 231.249 309.658 231.273 309.466 231.305C309.29 231.337 309.162 231.361 309.082 231.377V241.913H306.85V229.793ZM324.375 242.153C322.999 242.121 322.023 241.825 321.447 241.265C320.871 240.705 320.583 239.833 320.583 238.649V223.673L322.815 223.289V238.289C322.815 238.657 322.847 238.961 322.911 239.201C322.975 239.441 323.079 239.633 323.223 239.777C323.367 239.921 323.559 240.033 323.799 240.113C324.039 240.177 324.335 240.233 324.687 240.281L324.375 242.153ZM331.417 240.305C331.945 240.305 332.409 240.297 332.809 240.281C333.225 240.249 333.569 240.201 333.841 240.137V236.417C333.681 236.337 333.417 236.273 333.049 236.225C332.697 236.161 332.265 236.129 331.753 236.129C331.417 236.129 331.057 236.153 330.673 236.201C330.305 236.249 329.961 236.353 329.641 236.513C329.337 236.657 329.081 236.865 328.873 237.137C328.665 237.393 328.561 237.737 328.561 238.169C328.561 238.969 328.817 239.529 329.329 239.849C329.841 240.153 330.537 240.305 331.417 240.305ZM331.225 229.121C332.121 229.121 332.873 229.241 333.481 229.481C334.105 229.705 334.601 230.033 334.969 230.465C335.353 230.881 335.625 231.385 335.785 231.977C335.945 232.553 336.025 233.193 336.025 233.897V241.697C335.833 241.729 335.561 241.777 335.209 241.841C334.873 241.889 334.489 241.937 334.057 241.985C333.625 242.033 333.153 242.073 332.641 242.105C332.145 242.153 331.649 242.177 331.153 242.177C330.449 242.177 329.801 242.105 329.209 241.961C328.617 241.817 328.105 241.593 327.673 241.289C327.241 240.969 326.905 240.553 326.665 240.041C326.425 239.529 326.305 238.913 326.305 238.193C326.305 237.505 326.441 236.913 326.713 236.417C327.001 235.921 327.385 235.521 327.865 235.217C328.345 234.913 328.905 234.689 329.545 234.545C330.185 234.401 330.857 234.329 331.561 234.329C331.785 234.329 332.017 234.345 332.257 234.377C332.497 234.393 332.721 234.425 332.929 234.473C333.153 234.505 333.345 234.537 333.505 234.569C333.665 234.601 333.777 234.625 333.841 234.641V234.017C333.841 233.649 333.801 233.289 333.721 232.937C333.641 232.569 333.497 232.249 333.289 231.977C333.081 231.689 332.793 231.465 332.425 231.305C332.073 231.129 331.609 231.041 331.033 231.041C330.297 231.041 329.649 231.097 329.089 231.209C328.545 231.305 328.137 231.409 327.865 231.521L327.601 229.673C327.889 229.545 328.369 229.425 329.041 229.313C329.713 229.185 330.441 229.121 331.225 229.121ZM345.156 242.201C344.148 242.201 343.26 242.041 342.492 241.721C341.74 241.401 341.1 240.953 340.572 240.377C340.06 239.801 339.676 239.121 339.42 238.337C339.164 237.537 339.036 236.657 339.036 235.697C339.036 234.737 339.172 233.857 339.444 233.057C339.732 232.257 340.132 231.569 340.644 230.993C341.156 230.401 341.78 229.945 342.516 229.625C343.268 229.289 344.1 229.121 345.012 229.121C345.572 229.121 346.132 229.169 346.692 229.265C347.252 229.361 347.788 229.513 348.3 229.721L347.796 231.617C347.46 231.457 347.068 231.329 346.62 231.233C346.188 231.137 345.724 231.089 345.228 231.089C343.98 231.089 343.02 231.481 342.348 232.265C341.692 233.049 341.364 234.193 341.364 235.697C341.364 236.369 341.436 236.985 341.58 237.545C341.74 238.105 341.98 238.585 342.3 238.985C342.636 239.385 343.06 239.697 343.572 239.921C344.084 240.129 344.708 240.233 345.444 240.233C346.036 240.233 346.572 240.177 347.052 240.065C347.532 239.953 347.908 239.833 348.18 239.705L348.492 241.577C348.364 241.657 348.18 241.737 347.94 241.817C347.7 241.881 347.428 241.937 347.124 241.985C346.82 242.049 346.492 242.097 346.14 242.129C345.804 242.177 345.476 242.201 345.156 242.201ZM350.193 235.697C350.193 234.593 350.353 233.633 350.673 232.817C350.993 231.985 351.417 231.297 351.945 230.753C352.473 230.209 353.081 229.801 353.769 229.529C354.457 229.257 355.161 229.121 355.881 229.121C357.561 229.121 358.849 229.649 359.745 230.705C360.641 231.745 361.089 233.337 361.089 235.481C361.089 235.577 361.089 235.705 361.089 235.865C361.089 236.009 361.081 236.145 361.065 236.273H352.521C352.617 237.569 352.993 238.553 353.649 239.225C354.305 239.897 355.329 240.233 356.721 240.233C357.505 240.233 358.161 240.169 358.689 240.041C359.233 239.897 359.641 239.761 359.913 239.633L360.225 241.505C359.953 241.649 359.473 241.801 358.785 241.961C358.113 242.121 357.345 242.201 356.481 242.201C355.393 242.201 354.449 242.041 353.649 241.721C352.865 241.385 352.217 240.929 351.705 240.353C351.193 239.777 350.809 239.097 350.553 238.313C350.313 237.513 350.193 236.641 350.193 235.697ZM358.761 234.473C358.777 233.465 358.521 232.641 357.993 232.001C357.481 231.345 356.769 231.017 355.857 231.017C355.345 231.017 354.889 231.121 354.489 231.329C354.105 231.521 353.777 231.777 353.505 232.097C353.233 232.417 353.017 232.785 352.857 233.201C352.713 233.617 352.617 234.041 352.569 234.473H358.761ZM377.914 232.073C377.642 231.849 377.25 231.633 376.738 231.425C376.226 231.217 375.666 231.113 375.058 231.113C374.418 231.113 373.866 231.233 373.402 231.473C372.954 231.697 372.586 232.017 372.298 232.433C372.01 232.833 371.802 233.313 371.674 233.873C371.546 234.433 371.482 235.033 371.482 235.673C371.482 237.129 371.842 238.257 372.562 239.057C373.282 239.841 374.242 240.233 375.442 240.233C376.05 240.233 376.554 240.209 376.954 240.161C377.37 240.097 377.69 240.033 377.914 239.969V232.073ZM377.914 223.673L380.146 223.289V241.553C379.634 241.697 378.978 241.841 378.178 241.985C377.378 242.129 376.458 242.201 375.418 242.201C374.458 242.201 373.594 242.049 372.826 241.745C372.058 241.441 371.402 241.009 370.858 240.449C370.314 239.889 369.89 239.209 369.586 238.409C369.298 237.593 369.154 236.681 369.154 235.673C369.154 234.713 369.274 233.833 369.514 233.033C369.77 232.233 370.138 231.545 370.618 230.969C371.098 230.393 371.682 229.945 372.37 229.625C373.074 229.305 373.874 229.145 374.77 229.145C375.49 229.145 376.122 229.241 376.666 229.433C377.226 229.625 377.642 229.809 377.914 229.985V223.673ZM383.286 235.697C383.286 234.593 383.446 233.633 383.766 232.817C384.086 231.985 384.51 231.297 385.038 230.753C385.566 230.209 386.174 229.801 386.862 229.529C387.55 229.257 388.254 229.121 388.974 229.121C390.654 229.121 391.942 229.649 392.838 230.705C393.734 231.745 394.182 233.337 394.182 235.481C394.182 235.577 394.182 235.705 394.182 235.865C394.182 236.009 394.174 236.145 394.158 236.273H385.614C385.71 237.569 386.086 238.553 386.742 239.225C387.398 239.897 388.422 240.233 389.814 240.233C390.598 240.233 391.254 240.169 391.782 240.041C392.326 239.897 392.734 239.761 393.006 239.633L393.318 241.505C393.046 241.649 392.566 241.801 391.878 241.961C391.206 242.121 390.438 242.201 389.574 242.201C388.486 242.201 387.542 242.041 386.742 241.721C385.958 241.385 385.31 240.929 384.798 240.353C384.286 239.777 383.902 239.097 383.646 238.313C383.406 237.513 383.286 236.641 383.286 235.697ZM391.854 234.473C391.87 233.465 391.614 232.641 391.086 232.001C390.574 231.345 389.862 231.017 388.95 231.017C388.438 231.017 387.982 231.121 387.582 231.329C387.198 231.521 386.87 231.777 386.598 232.097C386.326 232.417 386.11 232.785 385.95 233.201C385.806 233.617 385.71 234.041 385.662 234.473H391.854ZM405.031 229.433H409.759V231.305H405.031V237.065C405.031 237.689 405.079 238.209 405.175 238.625C405.271 239.025 405.415 239.345 405.607 239.585C405.799 239.809 406.039 239.969 406.327 240.065C406.615 240.161 406.951 240.209 407.335 240.209C408.007 240.209 408.543 240.137 408.943 239.993C409.359 239.833 409.647 239.721 409.807 239.657L410.239 241.505C410.015 241.617 409.623 241.753 409.063 241.913C408.503 242.089 407.863 242.177 407.143 242.177C406.295 242.177 405.591 242.073 405.031 241.865C404.487 241.641 404.047 241.313 403.711 240.881C403.375 240.449 403.135 239.921 402.991 239.297C402.863 238.657 402.799 237.921 402.799 237.089V225.953L405.031 225.569V229.433ZM414.832 241.913H412.6V229.433H414.832V241.913ZM413.704 227.177C413.304 227.177 412.96 227.049 412.672 226.793C412.4 226.521 412.264 226.161 412.264 225.713C412.264 225.265 412.4 224.913 412.672 224.657C412.96 224.385 413.304 224.249 413.704 224.249C414.104 224.249 414.44 224.385 414.712 224.657C415 224.913 415.144 225.265 415.144 225.713C415.144 226.161 415 226.521 414.712 226.793C414.44 227.049 414.104 227.177 413.704 227.177ZM423.182 235.049C423.662 235.417 424.166 235.873 424.694 236.417C425.238 236.961 425.766 237.553 426.278 238.193C426.806 238.817 427.302 239.457 427.766 240.113C428.23 240.753 428.622 241.353 428.942 241.913H426.326C425.99 241.353 425.598 240.785 425.15 240.209C424.718 239.617 424.262 239.057 423.782 238.529C423.302 237.985 422.814 237.489 422.318 237.041C421.822 236.593 421.35 236.217 420.902 235.913V241.913H418.67V223.673L420.902 223.289V234.665C421.286 234.281 421.71 233.857 422.174 233.393C422.638 232.929 423.094 232.457 423.542 231.977C423.99 231.497 424.414 231.041 424.814 230.609C425.214 230.161 425.558 229.769 425.846 229.433H428.462C428.094 229.833 427.694 230.273 427.262 230.753C426.83 231.233 426.382 231.721 425.918 232.217C425.454 232.697 424.982 233.185 424.502 233.681C424.038 234.161 423.598 234.617 423.182 235.049ZM433.297 229.433H438.025V231.305H433.297V237.065C433.297 237.689 433.345 238.209 433.441 238.625C433.537 239.025 433.681 239.345 433.873 239.585C434.065 239.809 434.305 239.969 434.593 240.065C434.881 240.161 435.217 240.209 435.601 240.209C436.273 240.209 436.809 240.137 437.209 239.993C437.625 239.833 437.913 239.721 438.073 239.657L438.505 241.505C438.281 241.617 437.889 241.753 437.329 241.913C436.769 242.089 436.129 242.177 435.409 242.177C434.561 242.177 433.857 242.073 433.297 241.865C432.753 241.641 432.313 241.313 431.977 240.881C431.641 240.449 431.401 239.921 431.257 239.297C431.129 238.657 431.065 237.921 431.065 237.089V225.953L433.297 225.569V229.433ZM451.553 235.673C451.553 236.665 451.409 237.561 451.121 238.361C450.833 239.161 450.425 239.849 449.897 240.425C449.385 241.001 448.769 241.449 448.049 241.769C447.329 242.073 446.545 242.225 445.697 242.225C444.849 242.225 444.065 242.073 443.345 241.769C442.625 241.449 442.001 241.001 441.473 240.425C440.961 239.849 440.561 239.161 440.273 238.361C439.985 237.561 439.841 236.665 439.841 235.673C439.841 234.697 439.985 233.809 440.273 233.009C440.561 232.193 440.961 231.497 441.473 230.921C442.001 230.345 442.625 229.905 443.345 229.601C444.065 229.281 444.849 229.121 445.697 229.121C446.545 229.121 447.329 229.281 448.049 229.601C448.769 229.905 449.385 230.345 449.897 230.921C450.425 231.497 450.833 232.193 451.121 233.009C451.409 233.809 451.553 234.697 451.553 235.673ZM449.225 235.673C449.225 234.265 448.905 233.153 448.265 232.337C447.641 231.505 446.785 231.089 445.697 231.089C444.609 231.089 443.745 231.505 443.105 232.337C442.481 233.153 442.169 234.265 442.169 235.673C442.169 237.081 442.481 238.201 443.105 239.033C443.745 239.849 444.609 240.257 445.697 240.257C446.785 240.257 447.641 239.849 448.265 239.033C448.905 238.201 449.225 237.081 449.225 235.673ZM459.205 235.049C459.685 235.417 460.189 235.873 460.717 236.417C461.261 236.961 461.789 237.553 462.301 238.193C462.829 238.817 463.325 239.457 463.789 240.113C464.253 240.753 464.645 241.353 464.965 241.913H462.349C462.013 241.353 461.621 240.785 461.173 240.209C460.741 239.617 460.285 239.057 459.805 238.529C459.325 237.985 458.837 237.489 458.341 237.041C457.845 236.593 457.373 236.217 456.925 235.913V241.913H454.693V223.673L456.925 223.289V234.665C457.309 234.281 457.733 233.857 458.197 233.393C458.661 232.929 459.117 232.457 459.565 231.977C460.013 231.497 460.437 231.041 460.837 230.609C461.237 230.161 461.581 229.769 461.869 229.433H464.485C464.117 229.833 463.717 230.273 463.285 230.753C462.853 231.233 462.405 231.721 461.941 232.217C461.477 232.697 461.005 233.185 460.525 233.681C460.061 234.161 459.621 234.617 459.205 235.049ZM477.011 240.305C477.539 240.305 478.003 240.297 478.403 240.281C478.819 240.249 479.163 240.201 479.435 240.137V236.417C479.275 236.337 479.011 236.273 478.643 236.225C478.291 236.161 477.859 236.129 477.347 236.129C477.011 236.129 476.651 236.153 476.267 236.201C475.899 236.249 475.555 236.353 475.235 236.513C474.931 236.657 474.675 236.865 474.467 237.137C474.259 237.393 474.155 237.737 474.155 238.169C474.155 238.969 474.411 239.529 474.923 239.849C475.435 240.153 476.131 240.305 477.011 240.305ZM476.819 229.121C477.715 229.121 478.467 229.241 479.075 229.481C479.699 229.705 480.195 230.033 480.563 230.465C480.947 230.881 481.219 231.385 481.379 231.977C481.539 232.553 481.619 233.193 481.619 233.897V241.697C481.427 241.729 481.155 241.777 480.803 241.841C480.467 241.889 480.083 241.937 479.651 241.985C479.219 242.033 478.747 242.073 478.235 242.105C477.739 242.153 477.243 242.177 476.747 242.177C476.043 242.177 475.395 242.105 474.803 241.961C474.211 241.817 473.699 241.593 473.267 241.289C472.835 240.969 472.499 240.553 472.259 240.041C472.019 239.529 471.899 238.913 471.899 238.193C471.899 237.505 472.035 236.913 472.307 236.417C472.595 235.921 472.979 235.521 473.459 235.217C473.939 234.913 474.499 234.689 475.139 234.545C475.779 234.401 476.451 234.329 477.155 234.329C477.379 234.329 477.611 234.345 477.851 234.377C478.091 234.393 478.315 234.425 478.523 234.473C478.747 234.505 478.939 234.537 479.099 234.569C479.259 234.601 479.371 234.625 479.435 234.641V234.017C479.435 233.649 479.395 233.289 479.315 232.937C479.235 232.569 479.091 232.249 478.883 231.977C478.675 231.689 478.387 231.465 478.019 231.305C477.667 231.129 477.203 231.041 476.627 231.041C475.891 231.041 475.243 231.097 474.683 231.209C474.139 231.305 473.731 231.409 473.459 231.521L473.195 229.673C473.483 229.545 473.963 229.425 474.635 229.313C475.307 229.185 476.035 229.121 476.819 229.121ZM486.958 235.697C486.958 236.337 487.022 236.937 487.15 237.497C487.278 238.041 487.486 238.521 487.774 238.937C488.062 239.337 488.43 239.657 488.878 239.897C489.342 240.121 489.894 240.233 490.534 240.233C491.142 240.233 491.702 240.129 492.214 239.921C492.726 239.713 493.118 239.497 493.39 239.273V231.401C493.166 231.337 492.862 231.281 492.478 231.233C492.11 231.185 491.59 231.161 490.918 231.161C489.718 231.161 488.758 231.553 488.038 232.337C487.318 233.121 486.958 234.241 486.958 235.697ZM484.63 235.697C484.63 234.689 484.774 233.785 485.062 232.985C485.366 232.169 485.79 231.481 486.334 230.921C486.878 230.361 487.534 229.929 488.302 229.625C489.07 229.321 489.934 229.169 490.894 229.169C491.934 229.169 492.846 229.249 493.63 229.409C494.43 229.553 495.094 229.689 495.622 229.817V246.353H493.39V241.361C493.118 241.537 492.702 241.721 492.142 241.913C491.598 242.105 490.966 242.201 490.246 242.201C489.35 242.201 488.55 242.041 487.846 241.721C487.158 241.401 486.574 240.953 486.094 240.377C485.614 239.801 485.246 239.113 484.99 238.313C484.75 237.513 484.63 236.641 484.63 235.697ZM509.395 241.553C508.883 241.681 508.203 241.817 507.355 241.961C506.523 242.105 505.555 242.177 504.451 242.177C503.491 242.177 502.683 242.041 502.027 241.769C501.371 241.481 500.843 241.081 500.443 240.569C500.043 240.057 499.755 239.457 499.579 238.769C499.403 238.065 499.315 237.289 499.315 236.441V229.433H501.547V235.961C501.547 237.481 501.787 238.569 502.267 239.225C502.747 239.881 503.555 240.209 504.691 240.209C504.931 240.209 505.179 240.201 505.435 240.185C505.691 240.169 505.931 240.153 506.155 240.137C506.379 240.105 506.579 240.081 506.755 240.065C506.947 240.033 507.083 240.001 507.163 239.969V229.433H509.395V241.553ZM515.472 241.913H513.24V229.433H515.472V241.913ZM514.344 227.177C513.944 227.177 513.6 227.049 513.312 226.793C513.04 226.521 512.904 226.161 512.904 225.713C512.904 225.265 513.04 224.913 513.312 224.657C513.6 224.385 513.944 224.249 514.344 224.249C514.744 224.249 515.08 224.385 515.352 224.657C515.64 224.913 515.784 225.265 515.784 225.713C515.784 226.161 515.64 226.521 515.352 226.793C515.08 227.049 514.744 227.177 514.344 227.177Z" fill="#DDBDF1"/>
<path d="M189.497 229.087L174.497 214.087C174.235 213.825 173.901 213.647 173.537 213.574C173.174 213.502 172.797 213.539 172.454 213.681C172.112 213.823 171.819 214.063 171.613 214.371C171.407 214.68 171.297 215.042 171.297 215.413V222.06C166.175 222.534 161.414 224.902 157.946 228.701C154.478 232.5 152.553 237.457 152.547 242.6V245.413C152.547 245.802 152.668 246.182 152.894 246.499C153.119 246.817 153.438 247.056 153.806 247.184C154.174 247.312 154.572 247.322 154.946 247.213C155.32 247.105 155.651 246.882 155.892 246.577C157.729 244.392 159.983 242.596 162.522 241.292C165.061 239.988 167.834 239.204 170.68 238.984C170.773 238.972 171.008 238.954 171.297 238.936V245.413C171.297 245.784 171.407 246.146 171.613 246.455C171.819 246.763 172.112 247.003 172.454 247.145C172.797 247.287 173.174 247.324 173.537 247.252C173.901 247.179 174.235 247.001 174.497 246.739L189.497 231.739C189.672 231.565 189.81 231.358 189.904 231.13C189.998 230.903 190.047 230.659 190.047 230.413C190.047 230.167 189.998 229.923 189.904 229.695C189.81 229.468 189.672 229.261 189.497 229.087ZM175.047 240.887V236.975C175.047 236.729 174.998 236.485 174.904 236.258C174.81 236.03 174.672 235.824 174.498 235.649C174.324 235.475 174.117 235.337 173.889 235.243C173.662 235.149 173.418 235.1 173.172 235.1C172.694 235.1 170.742 235.193 170.244 235.26C165.19 235.725 160.379 237.645 156.394 240.788C156.846 236.652 158.808 232.829 161.904 230.049C164.999 227.27 169.012 225.731 173.172 225.725C173.418 225.726 173.662 225.677 173.889 225.583C174.117 225.489 174.324 225.351 174.498 225.176C174.672 225.002 174.81 224.796 174.904 224.568C174.998 224.341 175.047 224.097 175.047 223.85V219.939L185.52 230.413L175.047 240.887Z" fill="#DDBDF1"/>
<path d="M682.672 241.913H705.172C706.207 241.913 707.047 242.752 707.047 243.788C707.047 244.737 706.341 245.522 705.426 245.646L705.172 245.663H682.672C681.636 245.663 680.797 244.823 680.797 243.788C680.797 242.839 681.502 242.054 682.417 241.93L682.672 241.913H705.172H682.672ZM693.667 211.93L693.922 211.913C694.871 211.913 695.656 212.618 695.78 213.534L695.797 213.788V233.008L701.435 227.373C702.1 226.708 703.142 226.647 703.876 227.192L704.086 227.373C704.752 228.039 704.813 229.081 704.268 229.815L704.086 230.025L695.248 238.864C694.582 239.529 693.54 239.59 692.806 239.045L692.596 238.864L683.757 230.025C683.025 229.293 683.025 228.106 683.757 227.373C684.423 226.708 685.464 226.647 686.199 227.192L686.409 227.373L692.047 233.013V213.788C692.047 212.839 692.752 212.054 693.667 211.93L693.922 211.913L693.667 211.93Z" fill="white"/>
<path d="M716.241 245.925L716.346 233.128L719.958 233.158C721.072 233.167 722.054 233.421 722.905 233.92C723.757 234.419 724.41 235.125 724.865 236.037C725.327 236.949 725.556 237.994 725.552 239.172L725.545 239.989C725.535 241.196 725.292 242.252 724.816 243.156C724.346 244.06 723.675 244.752 722.804 245.231C721.938 245.711 720.931 245.951 719.783 245.954L716.241 245.925ZM718.022 234.531L717.94 244.559L719.715 244.573C721.016 244.584 722.03 244.188 722.757 243.385C723.49 242.583 723.863 241.434 723.875 239.94L723.882 239.193C723.893 237.74 723.56 236.609 722.881 235.801C722.208 234.987 721.245 234.569 719.991 234.547L718.022 234.531ZM727.407 241.173C727.415 240.242 727.604 239.405 727.973 238.664C728.348 237.923 728.863 237.353 729.516 236.954C730.176 236.555 730.925 236.359 731.762 236.366C733.057 236.377 734.1 236.834 734.889 237.737C735.684 238.64 736.076 239.835 736.064 241.323L736.063 241.438C736.055 242.363 735.87 243.194 735.506 243.929C735.149 244.659 734.637 245.226 733.972 245.631C733.312 246.035 732.555 246.234 731.699 246.227C730.41 246.217 729.368 245.76 728.573 244.857C727.783 243.954 727.394 242.764 727.406 241.288L727.407 241.173ZM729.041 241.38C729.032 242.435 729.268 243.283 729.749 243.926C730.236 244.569 730.89 244.893 731.71 244.9C732.536 244.907 733.195 244.59 733.687 243.95C734.178 243.303 734.429 242.397 734.438 241.231C734.447 240.188 734.205 239.342 733.712 238.694C733.225 238.039 732.572 237.709 731.751 237.702C730.949 237.695 730.299 238.009 729.801 238.644C729.304 239.279 729.05 240.191 729.041 241.38ZM746.502 243.932L748.389 236.678L750.015 236.692L747.169 246.178L745.85 246.168L743.598 238.942L741.289 246.13L739.971 246.119L737.289 236.587L738.906 236.601L740.72 243.735L742.993 236.634L744.303 236.645L746.502 243.932ZM753.214 236.718L753.257 237.914C753.991 237.006 754.944 236.556 756.116 236.566C758.126 236.583 759.13 237.725 759.129 239.992L759.078 246.276L757.452 246.263L757.503 239.97C757.503 239.285 757.349 238.776 757.041 238.446C756.739 238.115 756.263 237.947 755.613 237.942C755.085 237.938 754.621 238.074 754.221 238.352C753.82 238.63 753.506 238.997 753.28 239.452L753.224 246.228L751.598 246.215L751.676 236.705L753.214 236.718ZM763.296 246.311L761.67 246.298L761.781 232.798L763.407 232.811L763.296 246.311ZM765.515 241.486C765.523 240.555 765.712 239.718 766.081 238.977C766.456 238.236 766.971 237.666 767.624 237.267C768.284 236.868 769.033 236.672 769.871 236.679C771.165 236.69 772.208 237.146 772.997 238.049C773.792 238.952 774.184 240.148 774.172 241.636L774.171 241.751C774.163 242.676 773.978 243.507 773.614 244.242C773.257 244.972 772.745 245.539 772.08 245.944C771.42 246.348 770.663 246.547 769.807 246.54C768.518 246.53 767.476 246.073 766.681 245.17C765.891 244.267 765.502 243.077 765.515 241.6V241.486ZM767.149 241.693C767.14 242.748 767.376 243.596 767.857 244.239C768.344 244.882 768.998 245.206 769.818 245.213C770.644 245.22 771.303 244.903 771.795 244.262C772.286 243.616 772.537 242.71 772.547 241.544C772.555 240.501 772.313 239.655 771.82 239.007C771.333 238.352 770.68 238.022 769.86 238.015C769.057 238.008 768.407 238.322 767.909 238.957C767.412 239.592 767.158 240.504 767.149 241.693ZM782.043 246.465C781.95 246.277 781.877 245.942 781.822 245.461C781.06 246.24 780.154 246.625 779.106 246.616C778.168 246.609 777.4 246.339 776.801 245.806C776.207 245.268 775.914 244.592 775.921 243.778C775.929 242.788 776.31 242.023 777.065 241.484C777.825 240.94 778.888 240.673 780.253 240.684L781.835 240.697L781.841 239.95C781.846 239.382 781.68 238.929 781.343 238.593C781.005 238.25 780.506 238.076 779.844 238.07C779.264 238.066 778.776 238.208 778.381 238.498C777.986 238.788 777.787 239.141 777.784 239.557L776.149 239.543C776.153 239.069 776.324 238.613 776.661 238.176C777.005 237.734 777.465 237.386 778.041 237.133C778.623 236.88 779.26 236.756 779.951 236.762C781.047 236.771 781.903 237.053 782.52 237.609C783.136 238.159 783.452 238.915 783.468 239.876L783.432 244.252C783.425 245.126 783.53 245.821 783.749 246.338L783.748 246.479L782.043 246.465ZM779.355 245.203C779.864 245.208 780.349 245.08 780.808 244.82C781.267 244.56 781.601 244.22 781.81 243.8L781.826 241.849L780.551 241.838C778.559 241.822 777.558 242.397 777.549 243.563C777.544 244.072 777.711 244.472 778.049 244.762C778.386 245.052 778.821 245.199 779.355 245.203ZM785.607 241.66C785.619 240.201 785.974 239.032 786.672 238.153C787.371 237.268 788.28 236.83 789.399 236.839C790.512 236.848 791.391 237.237 792.035 238.004L792.076 233.047L793.702 233.06L793.591 246.56L792.097 246.547L792.026 245.527C791.369 246.319 790.461 246.71 789.301 246.7C788.199 246.691 787.303 246.233 786.614 245.325C785.93 244.417 785.594 243.236 785.606 241.783L785.607 241.66ZM787.231 241.858C787.222 242.936 787.438 243.781 787.878 244.394C788.318 245.007 788.931 245.317 789.716 245.324C790.747 245.332 791.504 244.875 791.986 243.954L792.022 239.586C791.543 238.685 790.8 238.231 789.792 238.222C788.995 238.216 788.372 238.518 787.921 239.13C787.471 239.742 787.241 240.651 787.231 241.858Z" fill="white"/>
<path d="M316.797 119.913L-1.01599 277.413V-0.0870056H216.297L316.797 119.913Z" fill="#6193E9" fill-opacity="0.23"/>
<path d="M99.768 172.913V147.319H106.992C109.219 147.319 111.187 147.811 112.898 148.796C114.609 149.78 115.928 151.181 116.853 152.997C117.791 154.813 118.266 156.899 118.277 159.255V160.89C118.277 163.304 117.809 165.419 116.871 167.235C115.945 169.052 114.615 170.446 112.881 171.419C111.158 172.392 109.148 172.89 106.852 172.913H99.768ZM103.143 150.097V170.153H106.693C109.295 170.153 111.316 169.345 112.758 167.727C114.211 166.11 114.937 163.808 114.937 160.819V159.325C114.937 156.419 114.252 154.163 112.881 152.558C111.521 150.94 109.588 150.12 107.08 150.097H103.143ZM130.775 173.265C128.197 173.265 126.1 172.421 124.482 170.733C122.865 169.034 122.057 166.767 122.057 163.931V163.333C122.057 161.446 122.414 159.765 123.129 158.288C123.855 156.8 124.863 155.64 126.152 154.808C127.453 153.964 128.859 153.542 130.371 153.542C132.844 153.542 134.766 154.356 136.137 155.985C137.508 157.614 138.193 159.946 138.193 162.981V164.335H125.309C125.355 166.21 125.9 167.727 126.943 168.888C127.998 170.036 129.334 170.61 130.951 170.61C132.1 170.61 133.072 170.376 133.869 169.907C134.666 169.438 135.363 168.817 135.961 168.044L137.947 169.591C136.353 172.04 133.963 173.265 130.775 173.265ZM130.371 156.214C129.059 156.214 127.957 156.694 127.066 157.655C126.176 158.604 125.625 159.94 125.414 161.663H134.941V161.417C134.848 159.765 134.402 158.487 133.605 157.585C132.809 156.671 131.73 156.214 130.371 156.214ZM153.047 167.868C153.047 166.989 152.713 166.31 152.045 165.829C151.389 165.337 150.234 164.915 148.582 164.563C146.941 164.212 145.635 163.79 144.662 163.298C143.701 162.806 142.986 162.22 142.518 161.54C142.06 160.86 141.832 160.052 141.832 159.114C141.832 157.556 142.488 156.237 143.801 155.159C145.125 154.081 146.812 153.542 148.863 153.542C151.019 153.542 152.766 154.099 154.102 155.212C155.449 156.325 156.123 157.749 156.123 159.483H152.853C152.853 158.593 152.473 157.825 151.711 157.181C150.961 156.536 150.012 156.214 148.863 156.214C147.68 156.214 146.754 156.472 146.086 156.987C145.418 157.503 145.084 158.177 145.084 159.009C145.084 159.794 145.394 160.386 146.016 160.784C146.637 161.183 147.756 161.563 149.373 161.927C151.002 162.29 152.32 162.724 153.328 163.227C154.336 163.731 155.08 164.341 155.56 165.056C156.053 165.759 156.299 166.62 156.299 167.64C156.299 169.339 155.619 170.704 154.26 171.735C152.9 172.755 151.137 173.265 148.969 173.265C147.445 173.265 146.098 172.995 144.926 172.456C143.754 171.917 142.834 171.167 142.166 170.206C141.51 169.233 141.182 168.185 141.182 167.06H144.434C144.492 168.149 144.926 169.017 145.734 169.661C146.555 170.294 147.633 170.61 148.969 170.61C150.199 170.61 151.184 170.364 151.922 169.872C152.672 169.368 153.047 168.7 153.047 167.868ZM168.164 170.61C169.324 170.61 170.338 170.259 171.205 169.556C172.072 168.852 172.553 167.974 172.646 166.919H175.723C175.664 168.009 175.289 169.046 174.598 170.03C173.906 171.015 172.98 171.8 171.82 172.386C170.672 172.972 169.453 173.265 168.164 173.265C165.574 173.265 163.512 172.403 161.977 170.681C160.453 168.946 159.691 166.579 159.691 163.579V163.034C159.691 161.183 160.031 159.536 160.711 158.095C161.391 156.653 162.363 155.534 163.629 154.737C164.906 153.94 166.412 153.542 168.146 153.542C170.279 153.542 172.049 154.181 173.455 155.458C174.873 156.735 175.629 158.393 175.723 160.433H172.646C172.553 159.202 172.084 158.194 171.24 157.409C170.408 156.612 169.377 156.214 168.146 156.214C166.494 156.214 165.211 156.811 164.297 158.007C163.394 159.19 162.943 160.907 162.943 163.157V163.772C162.943 165.964 163.394 167.651 164.297 168.835C165.199 170.018 166.488 170.61 168.164 170.61ZM191.121 172.913C190.934 172.538 190.781 171.87 190.664 170.909C189.152 172.479 187.348 173.265 185.25 173.265C183.375 173.265 181.834 172.737 180.627 171.683C179.432 170.616 178.834 169.268 178.834 167.64C178.834 165.659 179.584 164.124 181.084 163.034C182.596 161.933 184.717 161.382 187.447 161.382H190.611V159.888C190.611 158.751 190.271 157.849 189.592 157.181C188.912 156.501 187.91 156.161 186.586 156.161C185.426 156.161 184.453 156.454 183.668 157.04C182.883 157.626 182.49 158.335 182.49 159.167H179.221C179.221 158.218 179.555 157.304 180.223 156.425C180.902 155.534 181.816 154.831 182.965 154.315C184.125 153.8 185.396 153.542 186.779 153.542C188.971 153.542 190.687 154.093 191.93 155.194C193.172 156.284 193.816 157.79 193.863 159.712V168.466C193.863 170.212 194.086 171.601 194.531 172.632V172.913H191.121ZM185.725 170.435C186.744 170.435 187.711 170.171 188.625 169.643C189.539 169.116 190.201 168.431 190.611 167.587V163.685H188.062C184.078 163.685 182.086 164.851 182.086 167.183C182.086 168.202 182.426 168.999 183.105 169.573C183.785 170.147 184.658 170.435 185.725 170.435ZM208.154 156.811C207.662 156.729 207.129 156.688 206.555 156.688C204.422 156.688 202.975 157.597 202.213 159.413V172.913H198.961V153.893H202.125L202.178 156.091C203.244 154.392 204.756 153.542 206.713 153.542C207.346 153.542 207.826 153.624 208.154 153.788V156.811ZM210.035 163.245C210.035 160.28 210.721 157.925 212.092 156.179C213.463 154.421 215.279 153.542 217.541 153.542C219.861 153.542 221.672 154.362 222.973 156.003L223.131 153.893H226.102V172.456C226.102 174.917 225.369 176.856 223.904 178.274C222.451 179.692 220.494 180.401 218.033 180.401C216.662 180.401 215.32 180.108 214.008 179.522C212.695 178.936 211.693 178.134 211.002 177.114L212.689 175.163C214.084 176.886 215.789 177.747 217.805 177.747C219.387 177.747 220.617 177.302 221.496 176.411C222.387 175.52 222.832 174.267 222.832 172.649V171.015C221.531 172.515 219.756 173.265 217.506 173.265C215.279 173.265 213.475 172.368 212.092 170.575C210.721 168.782 210.035 166.339 210.035 163.245ZM213.305 163.614C213.305 165.759 213.744 167.446 214.623 168.677C215.502 169.895 216.732 170.505 218.314 170.505C220.365 170.505 221.871 169.573 222.832 167.71V159.026C221.836 157.21 220.342 156.302 218.35 156.302C216.768 156.302 215.531 156.917 214.641 158.147C213.75 159.378 213.305 161.2 213.305 163.614ZM242.766 172.913C242.578 172.538 242.426 171.87 242.309 170.909C240.797 172.479 238.992 173.265 236.894 173.265C235.019 173.265 233.478 172.737 232.271 171.683C231.076 170.616 230.478 169.268 230.478 167.64C230.478 165.659 231.228 164.124 232.728 163.034C234.24 161.933 236.361 161.382 239.092 161.382H242.256V159.888C242.256 158.751 241.916 157.849 241.236 157.181C240.557 156.501 239.555 156.161 238.23 156.161C237.07 156.161 236.098 156.454 235.312 157.04C234.527 157.626 234.135 158.335 234.135 159.167H230.865C230.865 158.218 231.199 157.304 231.867 156.425C232.547 155.534 233.461 154.831 234.609 154.315C235.769 153.8 237.041 153.542 238.424 153.542C240.615 153.542 242.332 154.093 243.574 155.194C244.816 156.284 245.461 157.79 245.508 159.712V168.466C245.508 170.212 245.73 171.601 246.176 172.632V172.913H242.766ZM237.369 170.435C238.389 170.435 239.355 170.171 240.269 169.643C241.184 169.116 241.846 168.431 242.256 167.587V163.685H239.707C235.723 163.685 233.73 164.851 233.73 167.183C233.73 168.202 234.07 168.999 234.75 169.573C235.43 170.147 236.303 170.435 237.369 170.435ZM259.799 156.811C259.307 156.729 258.773 156.688 258.199 156.688C256.066 156.688 254.619 157.597 253.857 159.413V172.913H250.605V153.893H253.769L253.822 156.091C254.889 154.392 256.4 153.542 258.357 153.542C258.99 153.542 259.471 153.624 259.799 153.788V156.811ZM278.01 168.501L282.721 153.893H286.043L279.223 172.913H276.744L269.853 153.893H273.176L278.01 168.501ZM292.705 172.913H289.453V153.893H292.705V172.913ZM289.189 148.849C289.189 148.321 289.348 147.876 289.664 147.513C289.992 147.149 290.473 146.968 291.105 146.968C291.738 146.968 292.219 147.149 292.547 147.513C292.875 147.876 293.039 148.321 293.039 148.849C293.039 149.376 292.875 149.815 292.547 150.167C292.219 150.518 291.738 150.694 291.105 150.694C290.473 150.694 289.992 150.518 289.664 150.167C289.348 149.815 289.189 149.376 289.189 148.849ZM297.135 163.245C297.135 160.327 297.826 157.983 299.209 156.214C300.592 154.433 302.402 153.542 304.641 153.542C306.867 153.542 308.631 154.304 309.932 155.827V145.913H313.184V172.913H310.195L310.037 170.874C308.736 172.468 306.926 173.265 304.605 173.265C302.402 173.265 300.603 172.362 299.209 170.558C297.826 168.753 297.135 166.397 297.135 163.491V163.245ZM300.387 163.614C300.387 165.77 300.832 167.458 301.723 168.677C302.613 169.895 303.844 170.505 305.414 170.505C307.477 170.505 308.982 169.579 309.932 167.727V158.991C308.959 157.198 307.465 156.302 305.449 156.302C303.855 156.302 302.613 156.917 301.723 158.147C300.832 159.378 300.387 161.2 300.387 163.614ZM326.139 173.265C323.56 173.265 321.463 172.421 319.846 170.733C318.228 169.034 317.42 166.767 317.42 163.931V163.333C317.42 161.446 317.777 159.765 318.492 158.288C319.219 156.8 320.227 155.64 321.516 154.808C322.816 153.964 324.223 153.542 325.734 153.542C328.207 153.542 330.129 154.356 331.5 155.985C332.871 157.614 333.557 159.946 333.557 162.981V164.335H320.672C320.719 166.21 321.264 167.727 322.307 168.888C323.361 170.036 324.697 170.61 326.314 170.61C327.463 170.61 328.435 170.376 329.232 169.907C330.029 169.438 330.727 168.817 331.324 168.044L333.31 169.591C331.717 172.04 329.326 173.265 326.139 173.265ZM325.734 156.214C324.422 156.214 323.32 156.694 322.43 157.655C321.539 158.604 320.988 159.94 320.777 161.663H330.305V161.417C330.211 159.765 329.766 158.487 328.969 157.585C328.172 156.671 327.094 156.214 325.734 156.214ZM336.475 163.227C336.475 161.364 336.838 159.688 337.564 158.2C338.303 156.712 339.322 155.563 340.623 154.755C341.935 153.946 343.43 153.542 345.105 153.542C347.695 153.542 349.787 154.438 351.381 156.231C352.986 158.024 353.789 160.409 353.789 163.386V163.614C353.789 165.466 353.432 167.13 352.717 168.606C352.014 170.071 351 171.214 349.676 172.034C348.363 172.854 346.852 173.265 345.141 173.265C342.562 173.265 340.471 172.368 338.865 170.575C337.271 168.782 336.475 166.409 336.475 163.456V163.227ZM339.744 163.614C339.744 165.724 340.23 167.417 341.203 168.694C342.187 169.972 343.5 170.61 345.141 170.61C346.793 170.61 348.105 169.966 349.078 168.677C350.051 167.376 350.537 165.56 350.537 163.227C350.537 161.142 350.039 159.454 349.043 158.165C348.059 156.864 346.746 156.214 345.105 156.214C343.5 156.214 342.205 156.852 341.221 158.13C340.236 159.407 339.744 161.235 339.744 163.614ZM368.941 167.868C368.941 166.989 368.607 166.31 367.939 165.829C367.283 165.337 366.129 164.915 364.477 164.563C362.836 164.212 361.529 163.79 360.557 163.298C359.596 162.806 358.881 162.22 358.412 161.54C357.955 160.86 357.727 160.052 357.727 159.114C357.727 157.556 358.383 156.237 359.695 155.159C361.019 154.081 362.707 153.542 364.758 153.542C366.914 153.542 368.66 154.099 369.996 155.212C371.344 156.325 372.018 157.749 372.018 159.483H368.748C368.748 158.593 368.367 157.825 367.605 157.181C366.855 156.536 365.906 156.214 364.758 156.214C363.574 156.214 362.648 156.472 361.98 156.987C361.312 157.503 360.978 158.177 360.978 159.009C360.978 159.794 361.289 160.386 361.91 160.784C362.531 161.183 363.65 161.563 365.268 161.927C366.896 162.29 368.215 162.724 369.223 163.227C370.23 163.731 370.975 164.341 371.455 165.056C371.947 165.759 372.193 166.62 372.193 167.64C372.193 169.339 371.514 170.704 370.154 171.735C368.795 172.755 367.031 173.265 364.863 173.265C363.34 173.265 361.992 172.995 360.82 172.456C359.648 171.917 358.728 171.167 358.06 170.206C357.404 169.233 357.076 168.185 357.076 167.06H360.328C360.387 168.149 360.82 169.017 361.629 169.661C362.449 170.294 363.527 170.61 364.863 170.61C366.094 170.61 367.078 170.364 367.816 169.872C368.566 169.368 368.941 168.7 368.941 167.868ZM384.568 163.245C384.568 160.327 385.26 157.983 386.643 156.214C388.025 154.433 389.836 153.542 392.074 153.542C394.301 153.542 396.064 154.304 397.365 155.827V145.913H400.617V172.913H397.629L397.471 170.874C396.17 172.468 394.359 173.265 392.039 173.265C389.836 173.265 388.037 172.362 386.643 170.558C385.26 168.753 384.568 166.397 384.568 163.491V163.245ZM387.82 163.614C387.82 165.77 388.266 167.458 389.156 168.677C390.047 169.895 391.277 170.505 392.848 170.505C394.91 170.505 396.416 169.579 397.365 167.727V158.991C396.393 157.198 394.898 156.302 392.883 156.302C391.289 156.302 390.047 156.917 389.156 158.147C388.266 159.378 387.82 161.2 387.82 163.614ZM413.572 173.265C410.994 173.265 408.896 172.421 407.279 170.733C405.662 169.034 404.853 166.767 404.853 163.931V163.333C404.853 161.446 405.211 159.765 405.926 158.288C406.652 156.8 407.66 155.64 408.949 154.808C410.25 153.964 411.656 153.542 413.168 153.542C415.641 153.542 417.562 154.356 418.934 155.985C420.305 157.614 420.99 159.946 420.99 162.981V164.335H408.105C408.152 166.21 408.697 167.727 409.74 168.888C410.795 170.036 412.131 170.61 413.748 170.61C414.896 170.61 415.869 170.376 416.666 169.907C417.463 169.438 418.16 168.817 418.758 168.044L420.744 169.591C419.15 172.04 416.76 173.265 413.572 173.265ZM413.168 156.214C411.855 156.214 410.754 156.694 409.863 157.655C408.973 158.604 408.422 159.94 408.211 161.663H417.738V161.417C417.644 159.765 417.199 158.487 416.402 157.585C415.605 156.671 414.527 156.214 413.168 156.214ZM438.111 149.288V153.893H441.662V156.407H438.111V168.202C438.111 168.964 438.269 169.538 438.586 169.925C438.902 170.3 439.441 170.487 440.203 170.487C440.578 170.487 441.094 170.417 441.75 170.276V172.913C440.894 173.147 440.062 173.265 439.254 173.265C437.801 173.265 436.705 172.825 435.967 171.946C435.228 171.067 434.859 169.819 434.859 168.202V156.407H431.396V153.893H434.859V149.288H438.111ZM449.01 172.913H445.758V153.893H449.01V172.913ZM445.494 148.849C445.494 148.321 445.652 147.876 445.969 147.513C446.297 147.149 446.777 146.968 447.41 146.968C448.043 146.968 448.523 147.149 448.852 147.513C449.18 147.876 449.344 148.321 449.344 148.849C449.344 149.376 449.18 149.815 448.852 150.167C448.523 150.518 448.043 150.694 447.41 150.694C446.777 150.694 446.297 150.518 445.969 150.167C445.652 149.815 445.494 149.376 445.494 148.849ZM459.539 164.106L457.5 166.233V172.913H454.248V145.913H457.5V162.243L459.24 160.151L465.164 153.893H469.119L461.719 161.839L469.98 172.913H466.166L459.539 164.106ZM476.889 149.288V153.893H480.439V156.407H476.889V168.202C476.889 168.964 477.047 169.538 477.363 169.925C477.68 170.3 478.219 170.487 478.98 170.487C479.355 170.487 479.871 170.417 480.527 170.276V172.913C479.672 173.147 478.84 173.265 478.031 173.265C476.578 173.265 475.482 172.825 474.744 171.946C474.006 171.067 473.637 169.819 473.637 168.202V156.407H470.174V153.893H473.637V149.288H476.889ZM483.041 163.227C483.041 161.364 483.404 159.688 484.131 158.2C484.869 156.712 485.889 155.563 487.189 154.755C488.502 153.946 489.996 153.542 491.672 153.542C494.262 153.542 496.353 154.438 497.947 156.231C499.553 158.024 500.355 160.409 500.355 163.386V163.614C500.355 165.466 499.998 167.13 499.283 168.606C498.58 170.071 497.566 171.214 496.242 172.034C494.93 172.854 493.418 173.265 491.707 173.265C489.129 173.265 487.037 172.368 485.432 170.575C483.838 168.782 483.041 166.409 483.041 163.456V163.227ZM486.31 163.614C486.31 165.724 486.797 167.417 487.769 168.694C488.754 169.972 490.066 170.61 491.707 170.61C493.359 170.61 494.672 169.966 495.644 168.677C496.617 167.376 497.103 165.56 497.103 163.227C497.103 161.142 496.605 159.454 495.609 158.165C494.625 156.864 493.312 156.214 491.672 156.214C490.066 156.214 488.771 156.852 487.787 158.13C486.803 159.407 486.31 161.235 486.31 163.614ZM509.742 164.106L507.703 166.233V172.913H504.451V145.913H507.703V162.243L509.443 160.151L515.367 153.893H519.322L511.922 161.839L520.184 172.913H516.369L509.742 164.106ZM542.684 167.868C542.684 166.989 542.35 166.31 541.682 165.829C541.025 165.337 539.871 164.915 538.219 164.563C536.578 164.212 535.271 163.79 534.299 163.298C533.338 162.806 532.623 162.22 532.154 161.54C531.697 160.86 531.469 160.052 531.469 159.114C531.469 157.556 532.125 156.237 533.437 155.159C534.762 154.081 536.449 153.542 538.5 153.542C540.656 153.542 542.402 154.099 543.738 155.212C545.086 156.325 545.76 157.749 545.76 159.483H542.49C542.49 158.593 542.109 157.825 541.348 157.181C540.598 156.536 539.648 156.214 538.5 156.214C537.316 156.214 536.391 156.472 535.723 156.987C535.055 157.503 534.721 158.177 534.721 159.009C534.721 159.794 535.031 160.386 535.652 160.784C536.273 161.183 537.393 161.563 539.01 161.927C540.639 162.29 541.957 162.724 542.965 163.227C543.973 163.731 544.717 164.341 545.197 165.056C545.689 165.759 545.935 166.62 545.935 167.64C545.935 169.339 545.256 170.704 543.896 171.735C542.537 172.755 540.773 173.265 538.605 173.265C537.082 173.265 535.734 172.995 534.562 172.456C533.391 171.917 532.471 171.167 531.803 170.206C531.146 169.233 530.818 168.185 530.818 167.06H534.07C534.129 168.149 534.562 169.017 535.371 169.661C536.191 170.294 537.269 170.61 538.605 170.61C539.836 170.61 540.82 170.364 541.559 169.872C542.309 169.368 542.684 168.7 542.684 167.868ZM553.705 172.913H550.453V153.893H553.705V172.913ZM550.189 148.849C550.189 148.321 550.348 147.876 550.664 147.513C550.992 147.149 551.473 146.968 552.105 146.968C552.738 146.968 553.219 147.149 553.547 147.513C553.875 147.876 554.039 148.321 554.039 148.849C554.039 149.376 553.875 149.815 553.547 150.167C553.219 150.518 552.738 150.694 552.105 150.694C551.473 150.694 550.992 150.518 550.664 150.167C550.348 149.815 550.189 149.376 550.189 148.849ZM562.002 153.893L562.107 156.284C563.56 154.456 565.459 153.542 567.803 153.542C571.822 153.542 573.85 155.81 573.885 160.345V172.913H570.633V160.327C570.621 158.956 570.305 157.942 569.684 157.286C569.074 156.63 568.119 156.302 566.818 156.302C565.764 156.302 564.838 156.583 564.041 157.145C563.244 157.708 562.623 158.446 562.178 159.36V172.913H558.926V153.893H562.002ZM590.777 153.893L590.865 156.003C592.26 154.362 594.141 153.542 596.508 153.542C599.168 153.542 600.978 154.561 601.939 156.601C602.572 155.686 603.393 154.948 604.4 154.386C605.42 153.823 606.621 153.542 608.004 153.542C612.176 153.542 614.297 155.751 614.367 160.169V172.913H611.115V160.362C611.115 159.003 610.805 157.989 610.184 157.321C609.562 156.642 608.519 156.302 607.055 156.302C605.848 156.302 604.846 156.665 604.049 157.392C603.252 158.106 602.789 159.073 602.66 160.292V172.913H599.391V160.45C599.391 157.685 598.037 156.302 595.33 156.302C593.197 156.302 591.738 157.21 590.953 159.026V172.913H587.701V153.893H590.777ZM631.031 172.913C630.844 172.538 630.691 171.87 630.574 170.909C629.062 172.479 627.258 173.265 625.16 173.265C623.285 173.265 621.744 172.737 620.537 171.683C619.342 170.616 618.744 169.268 618.744 167.64C618.744 165.659 619.494 164.124 620.994 163.034C622.506 161.933 624.627 161.382 627.357 161.382H630.521V159.888C630.521 158.751 630.182 157.849 629.502 157.181C628.822 156.501 627.82 156.161 626.496 156.161C625.336 156.161 624.363 156.454 623.578 157.04C622.793 157.626 622.4 158.335 622.4 159.167H619.131C619.131 158.218 619.465 157.304 620.133 156.425C620.812 155.534 621.727 154.831 622.875 154.315C624.035 153.8 625.307 153.542 626.689 153.542C628.881 153.542 630.598 154.093 631.84 155.194C633.082 156.284 633.727 157.79 633.773 159.712V168.466C633.773 170.212 633.996 171.601 634.441 172.632V172.913H631.031ZM625.635 170.435C626.654 170.435 627.621 170.171 628.535 169.643C629.449 169.116 630.111 168.431 630.521 167.587V163.685H627.973C623.988 163.685 621.996 164.851 621.996 167.183C621.996 168.202 622.336 168.999 623.016 169.573C623.695 170.147 624.568 170.435 625.635 170.435ZM648.064 156.811C647.572 156.729 647.039 156.688 646.465 156.688C644.332 156.688 642.885 157.597 642.123 159.413V172.913H638.871V153.893H642.035L642.088 156.091C643.154 154.392 644.666 153.542 646.623 153.542C647.256 153.542 647.736 153.624 648.064 153.788V156.811ZM658.348 170.61C659.508 170.61 660.521 170.259 661.389 169.556C662.256 168.852 662.736 167.974 662.83 166.919H665.906C665.848 168.009 665.473 169.046 664.781 170.03C664.09 171.015 663.164 171.8 662.004 172.386C660.855 172.972 659.637 173.265 658.348 173.265C655.758 173.265 653.695 172.403 652.16 170.681C650.637 168.946 649.875 166.579 649.875 163.579V163.034C649.875 161.183 650.215 159.536 650.894 158.095C651.574 156.653 652.547 155.534 653.812 154.737C655.09 153.94 656.596 153.542 658.33 153.542C660.463 153.542 662.232 154.181 663.639 155.458C665.057 156.735 665.812 158.393 665.906 160.433H662.83C662.736 159.202 662.268 158.194 661.424 157.409C660.592 156.612 659.56 156.214 658.33 156.214C656.678 156.214 655.394 156.811 654.48 158.007C653.578 159.19 653.127 160.907 653.127 163.157V163.772C653.127 165.964 653.578 167.651 654.48 168.835C655.383 170.018 656.672 170.61 658.348 170.61ZM681.305 172.913C681.117 172.538 680.965 171.87 680.848 170.909C679.336 172.479 677.531 173.265 675.434 173.265C673.559 173.265 672.018 172.737 670.81 171.683C669.615 170.616 669.018 169.268 669.018 167.64C669.018 165.659 669.768 164.124 671.268 163.034C672.779 161.933 674.9 161.382 677.631 161.382H680.795V159.888C680.795 158.751 680.455 157.849 679.775 157.181C679.096 156.501 678.094 156.161 676.769 156.161C675.609 156.161 674.637 156.454 673.852 157.04C673.066 157.626 672.674 158.335 672.674 159.167H669.404C669.404 158.218 669.738 157.304 670.406 156.425C671.086 155.534 672 154.831 673.148 154.315C674.309 153.8 675.58 153.542 676.963 153.542C679.154 153.542 680.871 154.093 682.113 155.194C683.355 156.284 684 157.79 684.047 159.712V168.466C684.047 170.212 684.269 171.601 684.715 172.632V172.913H681.305ZM675.908 170.435C676.928 170.435 677.894 170.171 678.809 169.643C679.723 169.116 680.385 168.431 680.795 167.587V163.685H678.246C674.262 163.685 672.269 164.851 672.269 167.183C672.269 168.202 672.609 168.999 673.289 169.573C673.969 170.147 674.842 170.435 675.908 170.435ZM697.283 163.245C697.283 160.327 697.975 157.983 699.357 156.214C700.74 154.433 702.551 153.542 704.789 153.542C707.016 153.542 708.779 154.304 710.08 155.827V145.913H713.332V172.913H710.344L710.185 170.874C708.885 172.468 707.074 173.265 704.754 173.265C702.551 173.265 700.752 172.362 699.357 170.558C697.975 168.753 697.283 166.397 697.283 163.491V163.245ZM700.535 163.614C700.535 165.77 700.98 167.458 701.871 168.677C702.762 169.895 703.992 170.505 705.562 170.505C707.625 170.505 709.131 169.579 710.08 167.727V158.991C709.107 157.198 707.613 156.302 705.598 156.302C704.004 156.302 702.762 156.917 701.871 158.147C700.98 159.378 700.535 161.2 700.535 163.614ZM726.287 173.265C723.709 173.265 721.611 172.421 719.994 170.733C718.377 169.034 717.568 166.767 717.568 163.931V163.333C717.568 161.446 717.926 159.765 718.641 158.288C719.367 156.8 720.375 155.64 721.664 154.808C722.965 153.964 724.371 153.542 725.883 153.542C728.355 153.542 730.277 154.356 731.648 155.985C733.019 157.614 733.705 159.946 733.705 162.981V164.335H720.82C720.867 166.21 721.412 167.727 722.455 168.888C723.51 170.036 724.846 170.61 726.463 170.61C727.611 170.61 728.584 170.376 729.381 169.907C730.178 169.438 730.875 168.817 731.473 168.044L733.459 169.591C731.865 172.04 729.475 173.265 726.287 173.265ZM725.883 156.214C724.57 156.214 723.469 156.694 722.578 157.655C721.687 158.604 721.137 159.94 720.926 161.663H730.453V161.417C730.359 159.765 729.914 158.487 729.117 157.585C728.32 156.671 727.242 156.214 725.883 156.214ZM758.156 172.913C757.969 172.538 757.816 171.87 757.699 170.909C756.187 172.479 754.383 173.265 752.285 173.265C750.41 173.265 748.869 172.737 747.662 171.683C746.467 170.616 745.869 169.268 745.869 167.64C745.869 165.659 746.619 164.124 748.119 163.034C749.631 161.933 751.752 161.382 754.482 161.382H757.646V159.888C757.646 158.751 757.307 157.849 756.627 157.181C755.947 156.501 754.945 156.161 753.621 156.161C752.461 156.161 751.488 156.454 750.703 157.04C749.918 157.626 749.525 158.335 749.525 159.167H746.256C746.256 158.218 746.59 157.304 747.258 156.425C747.937 155.534 748.852 154.831 750 154.315C751.16 153.8 752.432 153.542 753.814 153.542C756.006 153.542 757.723 154.093 758.965 155.194C760.207 156.284 760.852 157.79 760.898 159.712V168.466C760.898 170.212 761.121 171.601 761.566 172.632V172.913H758.156ZM752.76 170.435C753.779 170.435 754.746 170.171 755.66 169.643C756.574 169.116 757.236 168.431 757.646 167.587V163.685H755.098C751.113 163.685 749.121 164.851 749.121 167.183C749.121 168.202 749.461 168.999 750.141 169.573C750.82 170.147 751.693 170.435 752.76 170.435ZM765.223 163.245C765.223 160.28 765.908 157.925 767.279 156.179C768.65 154.421 770.467 153.542 772.728 153.542C775.049 153.542 776.859 154.362 778.16 156.003L778.318 153.893H781.289V172.456C781.289 174.917 780.557 176.856 779.092 178.274C777.639 179.692 775.682 180.401 773.221 180.401C771.85 180.401 770.508 180.108 769.195 179.522C767.883 178.936 766.881 178.134 766.189 177.114L767.877 175.163C769.271 176.886 770.977 177.747 772.992 177.747C774.574 177.747 775.805 177.302 776.684 176.411C777.574 175.52 778.019 174.267 778.019 172.649V171.015C776.719 172.515 774.943 173.265 772.693 173.265C770.467 173.265 768.662 172.368 767.279 170.575C765.908 168.782 765.223 166.339 765.223 163.245ZM768.492 163.614C768.492 165.759 768.932 167.446 769.81 168.677C770.689 169.895 771.92 170.505 773.502 170.505C775.553 170.505 777.059 169.573 778.019 167.71V159.026C777.023 157.21 775.529 156.302 773.537 156.302C771.955 156.302 770.719 156.917 769.828 158.147C768.937 159.378 768.492 161.2 768.492 163.614ZM797.953 171.032C796.687 172.52 794.83 173.265 792.381 173.265C790.353 173.265 788.807 172.679 787.74 171.507C786.685 170.323 786.152 168.577 786.141 166.268V153.893H789.393V166.181C789.393 169.063 790.564 170.505 792.908 170.505C795.393 170.505 797.045 169.579 797.865 167.727V153.893H801.117V172.913H798.023L797.953 171.032ZM817.816 172.913C817.629 172.538 817.477 171.87 817.359 170.909C815.848 172.479 814.043 173.265 811.945 173.265C810.07 173.265 808.529 172.737 807.322 171.683C806.127 170.616 805.529 169.268 805.529 167.64C805.529 165.659 806.279 164.124 807.779 163.034C809.291 161.933 811.412 161.382 814.143 161.382H817.307V159.888C817.307 158.751 816.967 157.849 816.287 157.181C815.607 156.501 814.605 156.161 813.281 156.161C812.121 156.161 811.148 156.454 810.363 157.04C809.578 157.626 809.185 158.335 809.185 159.167H805.916C805.916 158.218 806.25 157.304 806.918 156.425C807.598 155.534 808.512 154.831 809.66 154.315C810.82 153.8 812.092 153.542 813.475 153.542C815.666 153.542 817.383 154.093 818.625 155.194C819.867 156.284 820.512 157.79 820.559 159.712V168.466C820.559 170.212 820.781 171.601 821.227 172.632V172.913H817.816ZM812.42 170.435C813.439 170.435 814.406 170.171 815.32 169.643C816.234 169.116 816.896 168.431 817.307 167.587V163.685H814.758C810.773 163.685 808.781 164.851 808.781 167.183C808.781 168.202 809.121 168.999 809.801 169.573C810.48 170.147 811.353 170.435 812.42 170.435Z" fill="white"/>
<path d="M222.053 280.209C220.605 279.793 219.551 279.283 218.889 278.68C218.232 278.07 217.904 277.32 217.904 276.43C217.904 275.422 218.306 274.59 219.108 273.933C219.917 273.271 220.966 272.94 222.255 272.94C223.134 272.94 223.916 273.11 224.602 273.45C225.293 273.79 225.826 274.259 226.201 274.856C226.582 275.454 226.772 276.107 226.772 276.816H225.076C225.076 276.043 224.83 275.436 224.338 274.997C223.846 274.552 223.151 274.329 222.255 274.329C221.423 274.329 220.772 274.514 220.304 274.883C219.841 275.246 219.609 275.753 219.609 276.403C219.609 276.925 219.829 277.367 220.268 277.73C220.714 278.088 221.467 278.416 222.527 278.715C223.594 279.014 224.426 279.345 225.023 279.708C225.627 280.065 226.072 280.484 226.359 280.965C226.652 281.445 226.799 282.011 226.799 282.661C226.799 283.698 226.394 284.53 225.586 285.157C224.777 285.778 223.696 286.089 222.343 286.089C221.464 286.089 220.643 285.922 219.882 285.588C219.12 285.248 218.531 284.785 218.115 284.199C217.705 283.613 217.5 282.948 217.5 282.204H219.196C219.196 282.977 219.48 283.59 220.049 284.041C220.623 284.486 221.388 284.709 222.343 284.709C223.233 284.709 223.916 284.527 224.391 284.164C224.865 283.801 225.102 283.306 225.102 282.679C225.102 282.052 224.883 281.568 224.443 281.228C224.004 280.883 223.207 280.543 222.053 280.209ZM230.481 285.913H228.855V276.403H230.481V285.913ZM228.724 273.881C228.724 273.617 228.803 273.394 228.961 273.213C229.125 273.031 229.365 272.94 229.682 272.94C229.998 272.94 230.238 273.031 230.402 273.213C230.566 273.394 230.648 273.617 230.648 273.881C230.648 274.144 230.566 274.364 230.402 274.54C230.238 274.716 229.998 274.804 229.682 274.804C229.365 274.804 229.125 274.716 228.961 274.54C228.803 274.364 228.724 274.144 228.724 273.881ZM234.63 276.403L234.683 277.599C235.409 276.684 236.358 276.227 237.53 276.227C239.54 276.227 240.554 277.361 240.571 279.629V285.913H238.945V279.62C238.939 278.934 238.781 278.428 238.471 278.099C238.166 277.771 237.688 277.607 237.038 277.607C236.511 277.607 236.048 277.748 235.649 278.029C235.251 278.31 234.94 278.68 234.718 279.137V285.913H233.092V276.403H234.63ZM249.018 276.403L249.061 277.458C249.759 276.638 250.699 276.227 251.883 276.227C253.213 276.227 254.118 276.737 254.599 277.757C254.915 277.3 255.325 276.931 255.829 276.649C256.339 276.368 256.939 276.227 257.631 276.227C259.717 276.227 260.777 277.332 260.812 279.541V285.913H259.186V279.638C259.186 278.958 259.031 278.451 258.721 278.117C258.41 277.777 257.889 277.607 257.156 277.607C256.553 277.607 256.052 277.789 255.653 278.152C255.255 278.51 255.023 278.993 254.959 279.602V285.913H253.324V279.682C253.324 278.299 252.647 277.607 251.294 277.607C250.227 277.607 249.498 278.061 249.105 278.97V285.913H247.479V276.403H249.018ZM269.144 285.913C269.051 285.725 268.975 285.391 268.916 284.911C268.16 285.696 267.258 286.089 266.209 286.089C265.271 286.089 264.501 285.825 263.897 285.298C263.3 284.765 263.001 284.091 263.001 283.276C263.001 282.286 263.376 281.518 264.126 280.974C264.882 280.423 265.942 280.147 267.308 280.147H268.89V279.4C268.89 278.832 268.72 278.381 268.38 278.047C268.04 277.707 267.539 277.537 266.877 277.537C266.297 277.537 265.81 277.683 265.418 277.976C265.025 278.269 264.829 278.624 264.829 279.04H263.194C263.194 278.565 263.361 278.108 263.695 277.669C264.035 277.224 264.492 276.872 265.066 276.614C265.646 276.356 266.282 276.227 266.974 276.227C268.069 276.227 268.928 276.503 269.549 277.054C270.17 277.599 270.492 278.351 270.516 279.312V283.689C270.516 284.562 270.627 285.257 270.85 285.772V285.913H269.144ZM266.446 284.674C266.956 284.674 267.439 284.542 267.896 284.278C268.353 284.015 268.685 283.672 268.89 283.25V281.299H267.615C265.623 281.299 264.627 281.882 264.627 283.048C264.627 283.557 264.797 283.956 265.137 284.243C265.477 284.53 265.913 284.674 266.446 284.674ZM277.661 277.862C277.415 277.821 277.148 277.801 276.861 277.801C275.795 277.801 275.071 278.255 274.69 279.163V285.913H273.064V276.403H274.646L274.673 277.502C275.206 276.652 275.962 276.227 276.94 276.227C277.257 276.227 277.497 276.268 277.661 276.35V277.862ZM282.803 284.762C283.383 284.762 283.89 284.586 284.323 284.234C284.757 283.883 284.997 283.443 285.044 282.916H286.582C286.553 283.461 286.365 283.979 286.019 284.472C285.674 284.964 285.211 285.356 284.631 285.649C284.057 285.942 283.447 286.089 282.803 286.089C281.508 286.089 280.477 285.658 279.709 284.797C278.947 283.93 278.566 282.746 278.566 281.246V280.974C278.566 280.048 278.736 279.224 279.076 278.504C279.416 277.783 279.902 277.224 280.535 276.825C281.174 276.427 281.927 276.227 282.794 276.227C283.86 276.227 284.745 276.547 285.448 277.185C286.157 277.824 286.535 278.653 286.582 279.673H285.044C284.997 279.057 284.763 278.554 284.341 278.161C283.925 277.763 283.409 277.563 282.794 277.563C281.968 277.563 281.326 277.862 280.869 278.46C280.418 279.052 280.192 279.91 280.192 281.035V281.343C280.192 282.438 280.418 283.282 280.869 283.874C281.32 284.466 281.965 284.762 282.803 284.762ZM294.281 285.913C294.187 285.725 294.111 285.391 294.053 284.911C293.297 285.696 292.394 286.089 291.346 286.089C290.408 286.089 289.638 285.825 289.034 285.298C288.436 284.765 288.138 284.091 288.138 283.276C288.138 282.286 288.513 281.518 289.263 280.974C290.018 280.423 291.079 280.147 292.444 280.147H294.026V279.4C294.026 278.832 293.856 278.381 293.517 278.047C293.177 277.707 292.676 277.537 292.014 277.537C291.434 277.537 290.947 277.683 290.555 277.976C290.162 278.269 289.966 278.624 289.966 279.04H288.331C288.331 278.565 288.498 278.108 288.832 277.669C289.172 277.224 289.629 276.872 290.203 276.614C290.783 276.356 291.419 276.227 292.11 276.227C293.206 276.227 294.064 276.503 294.685 277.054C295.307 277.599 295.629 278.351 295.652 279.312V283.689C295.652 284.562 295.764 285.257 295.986 285.772V285.913H294.281ZM291.583 284.674C292.093 284.674 292.576 284.542 293.033 284.278C293.49 284.015 293.821 283.672 294.026 283.25V281.299H292.752C290.76 281.299 289.764 281.882 289.764 283.048C289.764 283.557 289.934 283.956 290.273 284.243C290.613 284.53 291.05 284.674 291.583 284.674ZM302.27 281.079C302.27 279.62 302.616 278.448 303.308 277.563C303.999 276.673 304.904 276.227 306.023 276.227C307.137 276.227 308.018 276.608 308.669 277.37V272.413H310.295V285.913H308.801L308.722 284.893C308.071 285.69 307.166 286.089 306.006 286.089C304.904 286.089 304.005 285.638 303.308 284.735C302.616 283.833 302.27 282.655 302.27 281.202V281.079ZM303.896 281.264C303.896 282.342 304.119 283.185 304.564 283.795C305.01 284.404 305.625 284.709 306.41 284.709C307.441 284.709 308.194 284.246 308.669 283.32V278.952C308.183 278.056 307.435 277.607 306.428 277.607C305.631 277.607 305.01 277.915 304.564 278.53C304.119 279.145 303.896 280.057 303.896 281.264ZM316.772 286.089C315.483 286.089 314.435 285.667 313.626 284.823C312.817 283.974 312.413 282.84 312.413 281.422V281.123C312.413 280.18 312.592 279.339 312.949 278.6C313.312 277.856 313.816 277.276 314.461 276.86C315.111 276.438 315.814 276.227 316.57 276.227C317.807 276.227 318.768 276.635 319.453 277.449C320.139 278.264 320.481 279.43 320.481 280.947V281.624H314.039C314.062 282.561 314.335 283.32 314.856 283.9C315.384 284.474 316.052 284.762 316.86 284.762C317.435 284.762 317.921 284.644 318.319 284.41C318.718 284.176 319.066 283.865 319.365 283.478L320.358 284.252C319.561 285.476 318.366 286.089 316.772 286.089ZM316.57 277.563C315.914 277.563 315.363 277.804 314.918 278.284C314.473 278.759 314.197 279.427 314.092 280.288H318.855V280.165C318.809 279.339 318.586 278.7 318.187 278.249C317.789 277.792 317.25 277.563 316.57 277.563ZM332.707 285.913C332.613 285.725 332.537 285.391 332.478 284.911C331.723 285.696 330.82 286.089 329.771 286.089C328.834 286.089 328.063 285.825 327.46 285.298C326.862 284.765 326.563 284.091 326.563 283.276C326.563 282.286 326.938 281.518 327.688 280.974C328.444 280.423 329.505 280.147 330.87 280.147H332.452V279.4C332.452 278.832 332.282 278.381 331.942 278.047C331.602 277.707 331.102 277.537 330.439 277.537C329.859 277.537 329.373 277.683 328.98 277.976C328.588 278.269 328.392 278.624 328.392 279.04H326.757C326.757 278.565 326.924 278.108 327.258 277.669C327.598 277.224 328.055 276.872 328.629 276.614C329.209 276.356 329.845 276.227 330.536 276.227C331.632 276.227 332.49 276.503 333.111 277.054C333.732 277.599 334.055 278.351 334.078 279.312V283.689C334.078 284.562 334.189 285.257 334.412 285.772V285.913H332.707ZM330.009 284.674C330.518 284.674 331.002 284.542 331.459 284.278C331.916 284.015 332.247 283.672 332.452 283.25V281.299H331.178C329.185 281.299 328.189 281.882 328.189 283.048C328.189 283.557 328.359 283.956 328.699 284.243C329.039 284.53 329.476 284.674 330.009 284.674ZM336.24 281.079C336.24 279.597 336.583 278.419 337.268 277.546C337.954 276.667 338.862 276.227 339.993 276.227C341.153 276.227 342.059 276.638 342.709 277.458L342.788 276.403H344.273V285.684C344.273 286.915 343.907 287.885 343.175 288.594C342.448 289.303 341.47 289.657 340.239 289.657C339.554 289.657 338.883 289.511 338.227 289.218C337.57 288.925 337.069 288.523 336.724 288.014L337.567 287.038C338.265 287.899 339.117 288.33 340.125 288.33C340.916 288.33 341.531 288.107 341.971 287.662C342.416 287.217 342.639 286.59 342.639 285.781V284.964C341.988 285.714 341.101 286.089 339.976 286.089C338.862 286.089 337.96 285.641 337.268 284.744C336.583 283.848 336.24 282.626 336.24 281.079ZM337.875 281.264C337.875 282.336 338.095 283.18 338.534 283.795C338.974 284.404 339.589 284.709 340.38 284.709C341.405 284.709 342.158 284.243 342.639 283.311V278.97C342.141 278.061 341.393 277.607 340.397 277.607C339.606 277.607 338.988 277.915 338.543 278.53C338.098 279.145 337.875 280.057 337.875 281.264ZM352.605 284.973C351.973 285.717 351.044 286.089 349.819 286.089C348.806 286.089 348.032 285.796 347.499 285.21C346.972 284.618 346.705 283.745 346.699 282.591V276.403H348.325V282.547C348.325 283.988 348.911 284.709 350.083 284.709C351.325 284.709 352.151 284.246 352.561 283.32V276.403H354.187V285.913H352.641L352.605 284.973ZM362.537 285.913C362.443 285.725 362.367 285.391 362.309 284.911C361.553 285.696 360.65 286.089 359.602 286.089C358.664 286.089 357.893 285.825 357.29 285.298C356.692 284.765 356.393 284.091 356.393 283.276C356.393 282.286 356.768 281.518 357.518 280.974C358.274 280.423 359.335 280.147 360.7 280.147H362.282V279.4C362.282 278.832 362.112 278.381 361.772 278.047C361.433 277.707 360.932 277.537 360.269 277.537C359.689 277.537 359.203 277.683 358.81 277.976C358.418 278.269 358.222 278.624 358.222 279.04H356.587C356.587 278.565 356.754 278.108 357.088 277.669C357.428 277.224 357.885 276.872 358.459 276.614C359.039 276.356 359.675 276.227 360.366 276.227C361.462 276.227 362.32 276.503 362.941 277.054C363.562 277.599 363.885 278.351 363.908 279.312V283.689C363.908 284.562 364.019 285.257 364.242 285.772V285.913H362.537ZM359.839 284.674C360.349 284.674 360.832 284.542 361.289 284.278C361.746 284.015 362.077 283.672 362.282 283.25V281.299H361.008C359.016 281.299 358.019 281.882 358.019 283.048C358.019 283.557 358.189 283.956 358.529 284.243C358.869 284.53 359.306 284.674 359.839 284.674ZM366.492 285.06C366.492 284.779 366.574 284.545 366.738 284.357C366.908 284.17 367.16 284.076 367.494 284.076C367.828 284.076 368.08 284.17 368.25 284.357C368.426 284.545 368.514 284.779 368.514 285.06C368.514 285.33 368.426 285.556 368.25 285.737C368.08 285.919 367.828 286.01 367.494 286.01C367.16 286.01 366.908 285.919 366.738 285.737C366.574 285.556 366.492 285.33 366.492 285.06ZM380.616 280.736H377.61V285.913H375.914V273.116H380.15C381.592 273.116 382.699 273.444 383.473 274.1C384.252 274.757 384.642 275.712 384.642 276.966C384.642 277.763 384.425 278.457 383.991 279.049C383.563 279.641 382.966 280.083 382.198 280.376L385.204 285.807V285.913H383.393L380.616 280.736ZM377.61 279.356H380.203C381.041 279.356 381.706 279.14 382.198 278.706C382.696 278.272 382.945 277.692 382.945 276.966C382.945 276.175 382.708 275.568 382.233 275.146C381.765 274.724 381.085 274.511 380.194 274.505H377.61V279.356ZM392.631 285.913C392.537 285.725 392.461 285.391 392.402 284.911C391.646 285.696 390.744 286.089 389.695 286.089C388.758 286.089 387.987 285.825 387.384 285.298C386.786 284.765 386.487 284.091 386.487 283.276C386.487 282.286 386.862 281.518 387.612 280.974C388.368 280.423 389.429 280.147 390.794 280.147H392.376V279.4C392.376 278.832 392.206 278.381 391.866 278.047C391.526 277.707 391.025 277.537 390.363 277.537C389.783 277.537 389.297 277.683 388.904 277.976C388.512 278.269 388.315 278.624 388.315 279.04H386.681C386.681 278.565 386.848 278.108 387.182 277.669C387.521 277.224 387.978 276.872 388.553 276.614C389.133 276.356 389.768 276.227 390.46 276.227C391.556 276.227 392.414 276.503 393.035 277.054C393.656 277.599 393.978 278.351 394.002 279.312V283.689C394.002 284.562 394.113 285.257 394.336 285.772V285.913H392.631ZM389.933 284.674C390.442 284.674 390.926 284.542 391.383 284.278C391.84 284.015 392.171 283.672 392.376 283.25V281.299H391.102C389.109 281.299 388.113 281.882 388.113 283.048C388.113 283.557 388.283 283.956 388.623 284.243C388.963 284.53 389.399 284.674 389.933 284.674ZM391.435 272.413H393.404L391.049 274.997H389.739L391.435 272.413ZM404.584 281.264C404.584 282.711 404.253 283.877 403.591 284.762C402.929 285.646 402.032 286.089 400.901 286.089C399.747 286.089 398.839 285.723 398.177 284.99V289.569H396.551V276.403H398.036L398.115 277.458C398.777 276.638 399.697 276.227 400.875 276.227C402.018 276.227 402.92 276.658 403.582 277.519C404.25 278.381 404.584 279.579 404.584 281.114V281.264ZM402.958 281.079C402.958 280.007 402.729 279.16 402.272 278.539C401.815 277.918 401.188 277.607 400.392 277.607C399.407 277.607 398.669 278.044 398.177 278.917V283.461C398.663 284.328 399.407 284.762 400.409 284.762C401.188 284.762 401.807 284.454 402.264 283.839C402.727 283.218 402.958 282.298 402.958 281.079ZM408.425 285.913H406.799V276.403H408.425V285.913ZM406.667 273.881C406.667 273.617 406.746 273.394 406.904 273.213C407.068 273.031 407.309 272.94 407.625 272.94C407.941 272.94 408.182 273.031 408.346 273.213C408.51 273.394 408.592 273.617 408.592 273.881C408.592 274.144 408.51 274.364 408.346 274.54C408.182 274.716 407.941 274.804 407.625 274.804C407.309 274.804 407.068 274.716 406.904 274.54C406.746 274.364 406.667 274.144 406.667 273.881ZM410.64 281.079C410.64 279.62 410.985 278.448 411.677 277.563C412.368 276.673 413.273 276.227 414.393 276.227C415.506 276.227 416.388 276.608 417.038 277.37V272.413H418.664V285.913H417.17L417.091 284.893C416.44 285.69 415.535 286.089 414.375 286.089C413.273 286.089 412.374 285.638 411.677 284.735C410.985 283.833 410.64 282.655 410.64 281.202V281.079ZM412.266 281.264C412.266 282.342 412.488 283.185 412.934 283.795C413.379 284.404 413.994 284.709 414.779 284.709C415.81 284.709 416.563 284.246 417.038 283.32V278.952C416.552 278.056 415.805 277.607 414.797 277.607C414 277.607 413.379 277.915 412.934 278.53C412.488 279.145 412.266 280.057 412.266 281.264ZM420.765 281.07C420.765 280.139 420.946 279.301 421.31 278.557C421.679 277.812 422.188 277.238 422.839 276.834C423.495 276.43 424.242 276.227 425.08 276.227C426.375 276.227 427.421 276.676 428.218 277.572C429.02 278.469 429.422 279.661 429.422 281.149V281.264C429.422 282.189 429.243 283.021 428.886 283.76C428.534 284.492 428.027 285.063 427.365 285.474C426.709 285.884 425.953 286.089 425.098 286.089C423.809 286.089 422.763 285.641 421.96 284.744C421.163 283.848 420.765 282.661 420.765 281.184V281.07ZM422.399 281.264C422.399 282.318 422.643 283.165 423.129 283.804C423.621 284.442 424.277 284.762 425.098 284.762C425.924 284.762 426.58 284.439 427.066 283.795C427.553 283.144 427.796 282.236 427.796 281.07C427.796 280.027 427.547 279.183 427.049 278.539C426.557 277.889 425.9 277.563 425.08 277.563C424.277 277.563 423.63 277.883 423.138 278.521C422.645 279.16 422.399 280.074 422.399 281.264ZM431.496 285.06C431.496 284.779 431.578 284.545 431.742 284.357C431.912 284.17 432.164 284.076 432.498 284.076C432.832 284.076 433.084 284.17 433.254 284.357C433.43 284.545 433.518 284.779 433.518 285.06C433.518 285.33 433.43 285.556 433.254 285.737C433.084 285.919 432.832 286.01 432.498 286.01C432.164 286.01 431.912 285.919 431.742 285.737C431.578 285.556 431.496 285.33 431.496 285.06ZM449.417 274.505H445.304V285.913H443.625V274.505H439.52V273.116H449.417V274.505ZM449.751 281.07C449.751 280.139 449.933 279.301 450.296 278.557C450.665 277.812 451.175 277.238 451.825 276.834C452.481 276.43 453.228 276.227 454.066 276.227C455.361 276.227 456.407 276.676 457.204 277.572C458.007 278.469 458.408 279.661 458.408 281.149V281.264C458.408 282.189 458.229 283.021 457.872 283.76C457.52 284.492 457.014 285.063 456.352 285.474C455.695 285.884 454.939 286.089 454.084 286.089C452.795 286.089 451.749 285.641 450.946 284.744C450.149 283.848 449.751 282.661 449.751 281.184V281.07ZM451.386 281.264C451.386 282.318 451.629 283.165 452.115 283.804C452.607 284.442 453.264 284.762 454.084 284.762C454.91 284.762 455.566 284.439 456.053 283.795C456.539 283.144 456.782 282.236 456.782 281.07C456.782 280.027 456.533 279.183 456.035 278.539C455.543 277.889 454.887 277.563 454.066 277.563C453.264 277.563 452.616 277.883 452.124 278.521C451.632 279.16 451.386 280.074 451.386 281.264ZM460.052 281.079C460.052 279.62 460.397 278.448 461.089 277.563C461.78 276.673 462.685 276.227 463.805 276.227C464.918 276.227 465.8 276.608 466.45 277.37V272.413H468.076V285.913H466.582L466.503 284.893C465.852 285.69 464.947 286.089 463.787 286.089C462.685 286.089 461.786 285.638 461.089 284.735C460.397 283.833 460.052 282.655 460.052 281.202V281.079ZM461.678 281.264C461.678 282.342 461.9 283.185 462.346 283.795C462.791 284.404 463.406 284.709 464.191 284.709C465.223 284.709 465.976 284.246 466.45 283.32V278.952C465.964 278.056 465.217 277.607 464.209 277.607C463.412 277.607 462.791 277.915 462.346 278.53C461.9 279.145 461.678 280.057 461.678 281.264ZM470.177 281.07C470.177 280.139 470.358 279.301 470.722 278.557C471.091 277.812 471.601 277.238 472.251 276.834C472.907 276.43 473.654 276.227 474.492 276.227C475.787 276.227 476.833 276.676 477.63 277.572C478.433 278.469 478.834 279.661 478.834 281.149V281.264C478.834 282.189 478.655 283.021 478.298 283.76C477.946 284.492 477.439 285.063 476.777 285.474C476.121 285.884 475.365 286.089 474.51 286.089C473.221 286.089 472.175 285.641 471.372 284.744C470.575 283.848 470.177 282.661 470.177 281.184V281.07ZM471.811 281.264C471.811 282.318 472.055 283.165 472.541 283.804C473.033 284.442 473.689 284.762 474.51 284.762C475.336 284.762 475.992 284.439 476.478 283.795C476.965 283.144 477.208 282.236 477.208 281.07C477.208 280.027 476.959 279.183 476.461 278.539C475.969 277.889 475.312 277.563 474.492 277.563C473.689 277.563 473.042 277.883 472.55 278.521C472.058 279.16 471.811 280.074 471.811 281.264ZM486.41 283.391C486.41 282.951 486.243 282.611 485.909 282.371C485.581 282.125 485.004 281.914 484.178 281.738C483.357 281.562 482.704 281.351 482.218 281.105C481.737 280.859 481.38 280.566 481.145 280.226C480.917 279.887 480.803 279.482 480.803 279.014C480.803 278.234 481.131 277.575 481.787 277.036C482.449 276.497 483.293 276.227 484.318 276.227C485.396 276.227 486.269 276.506 486.937 277.062C487.611 277.619 487.948 278.331 487.948 279.198H486.313C486.313 278.753 486.123 278.369 485.742 278.047C485.367 277.724 484.893 277.563 484.318 277.563C483.727 277.563 483.264 277.692 482.93 277.95C482.596 278.208 482.429 278.545 482.429 278.961C482.429 279.353 482.584 279.649 482.894 279.849C483.205 280.048 483.765 280.238 484.573 280.42C485.388 280.601 486.047 280.818 486.551 281.07C487.055 281.322 487.427 281.627 487.667 281.984C487.913 282.336 488.036 282.766 488.036 283.276C488.036 284.126 487.696 284.808 487.017 285.324C486.337 285.834 485.455 286.089 484.371 286.089C483.609 286.089 482.935 285.954 482.35 285.684C481.764 285.415 481.304 285.04 480.97 284.559C480.642 284.073 480.477 283.549 480.477 282.986H482.103C482.133 283.531 482.35 283.965 482.754 284.287C483.164 284.603 483.703 284.762 484.371 284.762C484.986 284.762 485.478 284.639 485.848 284.392C486.223 284.141 486.41 283.807 486.41 283.391ZM496.386 285.913H494.76V272.413H496.386V285.913ZM498.565 281.07C498.565 280.139 498.747 279.301 499.11 278.557C499.479 277.812 499.989 277.238 500.64 276.834C501.296 276.43 502.043 276.227 502.881 276.227C504.176 276.227 505.222 276.676 506.018 277.572C506.821 278.469 507.223 279.661 507.223 281.149V281.264C507.223 282.189 507.044 283.021 506.686 283.76C506.335 284.492 505.828 285.063 505.166 285.474C504.51 285.884 503.754 286.089 502.898 286.089C501.609 286.089 500.563 285.641 499.761 284.744C498.964 283.848 498.565 282.661 498.565 281.184V281.07ZM500.2 281.264C500.2 282.318 500.443 283.165 500.93 283.804C501.422 284.442 502.078 284.762 502.898 284.762C503.725 284.762 504.381 284.439 504.867 283.795C505.353 283.144 505.597 282.236 505.597 281.07C505.597 280.027 505.348 279.183 504.85 278.539C504.357 277.889 503.701 277.563 502.881 277.563C502.078 277.563 501.431 277.883 500.938 278.521C500.446 279.16 500.2 280.074 500.2 281.264ZM514.799 283.391C514.799 282.951 514.632 282.611 514.298 282.371C513.97 282.125 513.393 281.914 512.566 281.738C511.746 281.562 511.093 281.351 510.606 281.105C510.126 280.859 509.768 280.566 509.534 280.226C509.306 279.887 509.191 279.482 509.191 279.014C509.191 278.234 509.519 277.575 510.176 277.036C510.838 276.497 511.682 276.227 512.707 276.227C513.785 276.227 514.658 276.506 515.326 277.062C516 277.619 516.337 278.331 516.337 279.198H514.702C514.702 278.753 514.512 278.369 514.131 278.047C513.756 277.724 513.281 277.563 512.707 277.563C512.115 277.563 511.652 277.692 511.318 277.95C510.984 278.208 510.817 278.545 510.817 278.961C510.817 279.353 510.973 279.649 511.283 279.849C511.594 280.048 512.153 280.238 512.962 280.42C513.776 280.601 514.435 280.818 514.939 281.07C515.443 281.322 515.815 281.627 516.056 281.984C516.302 282.336 516.425 282.766 516.425 283.276C516.425 284.126 516.085 284.808 515.405 285.324C514.726 285.834 513.844 286.089 512.76 286.089C511.998 286.089 511.324 285.954 510.738 285.684C510.152 285.415 509.692 285.04 509.358 284.559C509.03 284.073 508.866 283.549 508.866 282.986H510.492C510.521 283.531 510.738 283.965 511.143 284.287C511.553 284.603 512.092 284.762 512.76 284.762C513.375 284.762 513.867 284.639 514.236 284.392C514.611 284.141 514.799 283.807 514.799 283.391ZM522.612 281.079C522.612 279.62 522.958 278.448 523.649 277.563C524.341 276.673 525.246 276.227 526.365 276.227C527.478 276.227 528.36 276.608 529.011 277.37V272.413H530.637V285.913H529.143L529.063 284.893C528.413 285.69 527.508 286.089 526.348 286.089C525.246 286.089 524.347 285.638 523.649 284.735C522.958 283.833 522.612 282.655 522.612 281.202V281.079ZM524.238 281.264C524.238 282.342 524.461 283.185 524.906 283.795C525.352 284.404 525.967 284.709 526.752 284.709C527.783 284.709 528.536 284.246 529.011 283.32V278.952C528.524 278.056 527.777 277.607 526.769 277.607C525.973 277.607 525.352 277.915 524.906 278.53C524.461 279.145 524.238 280.057 524.238 281.264ZM534.935 285.913H533.309V276.403H534.935V285.913ZM533.177 273.881C533.177 273.617 533.256 273.394 533.414 273.213C533.578 273.031 533.818 272.94 534.135 272.94C534.451 272.94 534.691 273.031 534.855 273.213C535.019 273.394 535.102 273.617 535.102 273.881C535.102 274.144 535.019 274.364 534.855 274.54C534.691 274.716 534.451 274.804 534.135 274.804C533.818 274.804 533.578 274.716 533.414 274.54C533.256 274.364 533.177 274.144 533.177 273.881ZM543.082 283.391C543.082 282.951 542.915 282.611 542.581 282.371C542.253 282.125 541.676 281.914 540.85 281.738C540.029 281.562 539.376 281.351 538.89 281.105C538.409 280.859 538.052 280.566 537.817 280.226C537.589 279.887 537.475 279.482 537.475 279.014C537.475 278.234 537.803 277.575 538.459 277.036C539.121 276.497 539.965 276.227 540.99 276.227C542.068 276.227 542.941 276.506 543.609 277.062C544.283 277.619 544.62 278.331 544.62 279.198H542.985C542.985 278.753 542.795 278.369 542.414 278.047C542.039 277.724 541.564 277.563 540.99 277.563C540.398 277.563 539.935 277.692 539.602 277.95C539.268 278.208 539.101 278.545 539.101 278.961C539.101 279.353 539.256 279.649 539.566 279.849C539.877 280.048 540.436 280.238 541.245 280.42C542.06 280.601 542.719 280.818 543.223 281.07C543.727 281.322 544.099 281.627 544.339 281.984C544.585 282.336 544.708 282.766 544.708 283.276C544.708 284.126 544.368 284.808 543.688 285.324C543.009 285.834 542.127 286.089 541.043 286.089C540.281 286.089 539.607 285.954 539.021 285.684C538.435 285.415 537.976 285.04 537.642 284.559C537.313 284.073 537.149 283.549 537.149 282.986H538.775C538.805 283.531 539.021 283.965 539.426 284.287C539.836 284.603 540.375 284.762 541.043 284.762C541.658 284.762 542.15 284.639 542.519 284.392C542.894 284.141 543.082 283.807 543.082 283.391ZM554.859 281.264C554.859 282.711 554.528 283.877 553.866 284.762C553.204 285.646 552.308 286.089 551.177 286.089C550.022 286.089 549.114 285.723 548.452 284.99V289.569H546.826V276.403H548.311L548.391 277.458C549.053 276.638 549.973 276.227 551.15 276.227C552.293 276.227 553.195 276.658 553.857 277.519C554.525 278.381 554.859 279.579 554.859 281.114V281.264ZM553.233 281.079C553.233 280.007 553.005 279.16 552.548 278.539C552.091 277.918 551.464 277.607 550.667 277.607C549.683 277.607 548.944 278.044 548.452 278.917V283.461C548.938 284.328 549.683 284.762 550.685 284.762C551.464 284.762 552.082 284.454 552.539 283.839C553.002 283.218 553.233 282.298 553.233 281.079ZM556.503 281.07C556.503 280.139 556.685 279.301 557.048 278.557C557.417 277.812 557.927 277.238 558.577 276.834C559.233 276.43 559.98 276.227 560.818 276.227C562.113 276.227 563.159 276.676 563.956 277.572C564.759 278.469 565.16 279.661 565.16 281.149V281.264C565.16 282.189 564.981 283.021 564.624 283.76C564.272 284.492 563.766 285.063 563.103 285.474C562.447 285.884 561.691 286.089 560.836 286.089C559.547 286.089 558.501 285.641 557.698 284.744C556.901 283.848 556.503 282.661 556.503 281.184V281.07ZM558.138 281.264C558.138 282.318 558.381 283.165 558.867 283.804C559.359 284.442 560.016 284.762 560.836 284.762C561.662 284.762 562.318 284.439 562.805 283.795C563.291 283.144 563.534 282.236 563.534 281.07C563.534 280.027 563.285 279.183 562.787 278.539C562.295 277.889 561.639 277.563 560.818 277.563C560.016 277.563 559.368 277.883 558.876 278.521C558.384 279.16 558.138 280.074 558.138 281.264ZM572.736 283.391C572.736 282.951 572.569 282.611 572.235 282.371C571.907 282.125 571.33 281.914 570.504 281.738C569.684 281.562 569.03 281.351 568.544 281.105C568.063 280.859 567.706 280.566 567.472 280.226C567.243 279.887 567.129 279.482 567.129 279.014C567.129 278.234 567.457 277.575 568.113 277.036C568.775 276.497 569.619 276.227 570.644 276.227C571.723 276.227 572.596 276.506 573.264 277.062C573.937 277.619 574.274 278.331 574.274 279.198H572.64C572.64 278.753 572.449 278.369 572.068 278.047C571.693 277.724 571.219 277.563 570.644 277.563C570.053 277.563 569.59 277.692 569.256 277.95C568.922 278.208 568.755 278.545 568.755 278.961C568.755 279.353 568.91 279.649 569.221 279.849C569.531 280.048 570.091 280.238 570.899 280.42C571.714 280.601 572.373 280.818 572.877 281.07C573.381 281.322 573.753 281.627 573.993 281.984C574.239 282.336 574.362 282.766 574.362 283.276C574.362 284.126 574.022 284.808 573.343 285.324C572.663 285.834 571.781 286.089 570.697 286.089C569.935 286.089 569.262 285.954 568.676 285.684C568.09 285.415 567.63 285.04 567.296 284.559C566.968 284.073 566.804 283.549 566.804 282.986H568.43C568.459 283.531 568.676 283.965 569.08 284.287C569.49 284.603 570.029 284.762 570.697 284.762C571.312 284.762 571.805 284.639 572.174 284.392C572.549 284.141 572.736 283.807 572.736 283.391ZM578.247 285.913H576.621V276.403H578.247V285.913ZM576.489 273.881C576.489 273.617 576.568 273.394 576.727 273.213C576.891 273.031 577.131 272.94 577.447 272.94C577.764 272.94 578.004 273.031 578.168 273.213C578.332 273.394 578.414 273.617 578.414 273.881C578.414 274.144 578.332 274.364 578.168 274.54C578.004 274.716 577.764 274.804 577.447 274.804C577.131 274.804 576.891 274.716 576.727 274.54C576.568 274.364 576.489 274.144 576.489 273.881ZM583.063 274.1V276.403H584.839V277.66H583.063V283.557C583.063 283.938 583.143 284.225 583.301 284.419C583.459 284.606 583.728 284.7 584.109 284.7C584.297 284.7 584.555 284.665 584.883 284.595V285.913C584.455 286.03 584.039 286.089 583.635 286.089C582.908 286.089 582.36 285.869 581.991 285.43C581.622 284.99 581.437 284.366 581.437 283.557V277.66H579.706V276.403H581.437V274.1H583.063ZM588.513 285.913H586.887V276.403H588.513V285.913ZM586.755 273.881C586.755 273.617 586.834 273.394 586.992 273.213C587.156 273.031 587.396 272.94 587.713 272.94C588.029 272.94 588.269 273.031 588.434 273.213C588.598 273.394 588.68 273.617 588.68 273.881C588.68 274.144 588.598 274.364 588.434 274.54C588.269 274.716 588.029 274.804 587.713 274.804C587.396 274.804 587.156 274.716 586.992 274.54C586.834 274.364 586.755 274.144 586.755 273.881ZM594.261 283.707L596.616 276.403H598.277L594.867 285.913H593.628L590.183 276.403H591.844L594.261 283.707ZM599.27 281.07C599.27 280.139 599.452 279.301 599.815 278.557C600.185 277.812 600.694 277.238 601.345 276.834C602.001 276.43 602.748 276.227 603.586 276.227C604.881 276.227 605.927 276.676 606.724 277.572C607.526 278.469 607.928 279.661 607.928 281.149V281.264C607.928 282.189 607.749 283.021 607.392 283.76C607.04 284.492 606.533 285.063 605.871 285.474C605.215 285.884 604.459 286.089 603.603 286.089C602.314 286.089 601.268 285.641 600.466 284.744C599.669 283.848 599.27 282.661 599.27 281.184V281.07ZM600.905 281.264C600.905 282.318 601.148 283.165 601.635 283.804C602.127 284.442 602.783 284.762 603.603 284.762C604.43 284.762 605.086 284.439 605.572 283.795C606.059 283.144 606.302 282.236 606.302 281.07C606.302 280.027 606.053 279.183 605.555 278.539C605.062 277.889 604.406 277.563 603.586 277.563C602.783 277.563 602.136 277.883 601.643 278.521C601.151 279.16 600.905 280.074 600.905 281.264ZM615.504 283.391C615.504 282.951 615.337 282.611 615.003 282.371C614.675 282.125 614.098 281.914 613.271 281.738C612.451 281.562 611.798 281.351 611.311 281.105C610.831 280.859 610.474 280.566 610.239 280.226C610.011 279.887 609.896 279.482 609.896 279.014C609.896 278.234 610.225 277.575 610.881 277.036C611.543 276.497 612.387 276.227 613.412 276.227C614.49 276.227 615.363 276.506 616.031 277.062C616.705 277.619 617.042 278.331 617.042 279.198H615.407C615.407 278.753 615.217 278.369 614.836 278.047C614.461 277.724 613.986 277.563 613.412 277.563C612.82 277.563 612.357 277.692 612.023 277.95C611.689 278.208 611.522 278.545 611.522 278.961C611.522 279.353 611.678 279.649 611.988 279.849C612.299 280.048 612.858 280.238 613.667 280.42C614.481 280.601 615.141 280.818 615.644 281.07C616.148 281.322 616.52 281.627 616.761 281.984C617.007 282.336 617.13 282.766 617.13 283.276C617.13 284.126 616.79 284.808 616.11 285.324C615.431 285.834 614.549 286.089 613.465 286.089C612.703 286.089 612.029 285.954 611.443 285.684C610.857 285.415 610.397 285.04 610.063 284.559C609.735 284.073 609.571 283.549 609.571 282.986H611.197C611.227 283.531 611.443 283.965 611.848 284.287C612.258 284.603 612.797 284.762 613.465 284.762C614.08 284.762 614.572 284.639 614.941 284.392C615.316 284.141 615.504 283.807 615.504 283.391Z" fill="white"/>
</g>
<defs>
<clipPath id="clip0_101_78">
<rect width="923" height="498" fill="white"/>
</clipPath>
</defs>
</svg>
